<?xml <?xml version="1.0" standalone="no"?>
<!DOCTYPE svg PUBLIC "-//W3C//DTD SVG 20010904//EN"
 "http://www.w3.org/TR/2001/REC-SVG-20010904/DTD/svg10.dtd">
<svg version="1.0" xmlns="http://www.w3.org/2000/svg"
 width="750.000000pt" height="735.000000pt" viewBox="0 0 750.000000 735.000000"
 preserveAspectRatio="xMidYMid meet">

<g transform="translate(0.000000,735.000000) scale(0.100000,-0.100000)"
fill="#000000" stroke="none">
<path d="M0 5726 l0 -1623 498 -9 c563 -10 534 -6 624 -95 69 -69 73 -91 68
-374 -3 -132 -5 -276 -5 -320 l0 -80 100 -17 c55 -9 111 -22 125 -29 61 -28
227 -18 420 24 124 28 175 38 230 49 30 5 75 16 100 23 25 7 64 13 87 13 23 1
51 6 62 11 11 6 32 11 48 11 15 0 48 6 73 14 25 7 50 11 57 9 6 -2 32 3 58 11
25 9 61 16 80 16 19 0 35 5 35 10 0 6 13 10 29 10 16 0 32 6 34 13 4 9 8 9 15
-2 8 -11 19 -10 68 7 33 10 102 30 154 43 52 12 106 29 120 36 14 7 36 13 50
13 14 0 50 7 80 15 30 8 75 15 100 16 34 0 40 2 25 9 -14 6 -4 9 37 9 31 1 67
5 80 10 13 5 53 12 88 15 77 8 127 21 195 51 121 53 135 60 135 68 0 4 6 7 12
7 17 0 121 52 130 65 4 6 8 6 8 1 0 -5 6 -3 13 3 8 6 17 8 20 4 4 -3 7 -1 7 6
0 7 5 9 10 6 6 -3 10 -2 10 2 0 5 22 20 50 34 27 13 50 27 50 32 0 4 11 7 24
7 13 0 26 7 30 15 3 8 15 15 26 15 11 0 20 4 20 8 0 4 22 16 50 27 28 11 50
23 50 27 0 4 6 8 13 8 12 0 91 39 261 128 l59 31 196 -5 c193 -6 251 -15 251
-42 0 -7 9 -30 20 -51 31 -61 14 -129 -29 -113 -7 3 -19 -1 -25 -9 -6 -8 -28
-22 -49 -32 -21 -9 -35 -21 -32 -27 3 -5 -11 -12 -32 -15 -42 -7 -133 -46
-133 -57 0 -5 -12 -8 -26 -8 -14 0 -37 -9 -51 -20 -14 -11 -33 -20 -42 -20 -9
0 -27 -9 -41 -20 -14 -11 -35 -20 -47 -20 -13 0 -23 -4 -23 -10 0 -10 -84 -50
-106 -50 -7 0 -17 -7 -22 -17 -6 -10 -16 -14 -26 -10 -9 4 -16 2 -16 -3 0 -6
-5 -10 -11 -10 -6 0 -25 -7 -42 -15 -62 -28 -142 -55 -164 -55 -13 0 -23 -3
-23 -7 0 -10 -58 -43 -76 -43 -18 0 -121 -47 -129 -59 -3 -5 -19 -12 -36 -16
-17 -4 -42 -13 -57 -21 -15 -8 -37 -14 -49 -14 -12 0 -24 -4 -27 -8 -9 -15
-133 -72 -155 -72 -12 0 -20 -4 -17 -9 7 -10 -2 -12 -134 -36 -52 -10 -103
-21 -112 -26 -10 -5 -50 -9 -88 -9 -47 0 -69 -4 -65 -10 4 -7 -2 -9 -18 -5
-15 4 -37 0 -55 -9 -17 -9 -56 -19 -86 -22 -31 -4 -59 -11 -62 -15 -3 -5 -20
-9 -37 -9 -18 0 -68 -7 -112 -15 -166 -31 -193 -35 -315 -45 -69 -5 -183 -12
-255 -15 -199 -8 -264 -14 -284 -25 -11 -5 -26 -7 -34 -5 -7 3 -35 -1 -61 -10
-57 -19 -239 -26 -431 -15 -127 7 -167 17 -250 63 -11 6 -32 17 -47 24 -15 8
-30 18 -33 24 -13 20 -21 7 -17 -27 5 -44 -15 -149 -37 -189 -26 -49 -69 -91
-111 -110 -47 -21 -53 -49 -14 -59 42 -11 92 -55 104 -92 6 -18 10 -61 9 -95
-3 -70 14 -92 52 -66 11 8 28 13 38 10 10 -2 36 5 57 16 21 12 47 21 56 21 10
0 26 4 36 9 9 5 37 14 60 21 39 10 43 14 38 35 -7 29 7 40 27 21 8 -8 33 -17
56 -20 37 -4 43 -2 54 21 8 19 17 24 36 20 13 -3 41 1 60 8 20 6 50 11 66 10
33 -3 86 13 97 29 4 6 35 9 72 8 39 -2 67 1 71 8 10 16 52 30 110 37 27 3 69
11 92 19 48 17 291 24 336 10 22 -7 31 -5 41 9 12 17 14 16 20 -10 12 -46 -34
-75 -144 -92 -19 -3 -48 -16 -63 -29 -16 -13 -37 -24 -47 -24 -23 0 -36 -17
-45 -58 -7 -35 -28 -42 -54 -18 -14 12 -30 12 -111 -1 -52 -8 -108 -16 -125
-17 -16 0 -40 -7 -52 -14 -12 -7 -43 -11 -69 -10 -38 1 -51 -3 -65 -20 -9 -12
-22 -22 -27 -22 -6 0 -12 -5 -14 -11 -4 -13 -73 -18 -110 -8 -22 6 -28 4 -33
-12 -6 -17 -16 -19 -86 -19 -60 0 -84 -4 -96 -16 -9 -8 -21 -13 -28 -10 -8 3
-20 -9 -29 -29 -9 -19 -21 -37 -26 -40 -17 -10 -22 16 -6 39 27 42 3 38 -37
-6 -38 -42 -40 -42 -48 -21 -7 20 -12 21 -35 13 -14 -6 -42 -8 -61 -4 -23 4
-38 2 -43 -6 -4 -6 -41 -15 -81 -19 l-74 -7 48 -8 c27 -4 51 -5 54 -2 4 3 13
-7 20 -22 16 -30 12 -111 -10 -171 -9 -27 -9 -35 1 -38 6 -3 12 -15 12 -29 0
-17 4 -22 15 -18 10 4 18 -3 25 -21 14 -38 13 -42 -15 -47 -25 -5 -36 7 -13
14 8 3 4 12 -9 25 -12 12 -18 24 -15 28 4 3 -1 3 -11 -1 -20 -7 -21 -16 -5
-32 9 -9 7 -12 -10 -12 -13 0 -22 -6 -22 -15 0 -8 6 -15 14 -15 13 0 26 -29
26 -60 0 -11 -3 -11 -12 -2 -18 18 -30 14 -19 -7 13 -23 3 -35 -16 -20 -16 14
-17 46 -2 51 12 4 1 38 -12 38 -5 0 -9 -10 -9 -22 0 -12 -3 -18 -7 -15 -9 9
-43 -22 -43 -40 0 -7 11 -13 25 -13 20 0 25 -5 25 -25 0 -16 6 -25 15 -25 8 0
15 7 15 15 0 11 11 15 39 15 22 0 43 5 46 10 3 6 18 10 32 10 13 0 36 9 50 20
14 11 35 20 47 20 12 0 31 7 42 15 10 8 29 15 40 15 12 0 29 11 38 24 13 21
21 24 49 19 23 -3 38 0 50 11 8 9 25 16 36 16 11 0 23 5 26 10 3 6 13 10 21
10 9 0 22 7 30 15 9 8 28 15 44 15 16 0 32 4 35 10 3 5 22 10 41 10 33 0 45
12 24 25 -6 4 -5 13 3 25 8 14 23 20 50 20 23 0 36 -4 32 -10 -3 -5 -1 -10 4
-10 6 0 11 5 11 10 0 6 7 10 15 10 8 0 15 5 15 10 0 6 -4 10 -10 10 -5 0 -10
7 -10 16 0 13 7 15 31 10 20 -4 42 0 63 10 17 9 39 21 50 26 10 6 41 12 69 14
28 3 59 12 71 20 11 8 31 14 43 14 18 0 23 6 23 25 0 22 3 24 19 15 33 -17 52
-12 107 30 29 22 58 40 64 40 5 0 10 5 10 10 0 6 13 10 29 10 16 0 31 6 34 13
3 9 9 9 26 0 25 -16 51 -17 51 -3 0 6 14 10 30 10 33 0 35 3 20 31 -9 16 -7
19 15 19 14 0 25 -4 25 -10 0 -18 31 -10 50 12 15 19 20 20 33 9 11 -8 21 -9
34 -3 10 6 31 8 47 5 44 -9 176 36 189 64 6 13 16 23 24 23 7 0 16 6 19 14 4
10 26 14 89 13 l84 -1 3 -30 c2 -23 9 -32 26 -34 12 -2 22 -8 22 -13 0 -5 11
-9 25 -9 18 0 25 -5 25 -20 0 -21 -16 -28 -22 -9 -5 14 -102 -17 -119 -37 -6
-8 -19 -14 -28 -14 -9 0 -26 -11 -39 -24 -15 -16 -39 -26 -72 -31 -28 -4 -50
-11 -50 -16 0 -5 -10 -20 -22 -34 -17 -20 -28 -24 -50 -20 -18 4 -43 -1 -70
-13 -83 -38 -125 -54 -139 -51 -18 4 -119 -32 -119 -43 0 -4 -13 -8 -29 -8
-17 0 -42 -11 -59 -25 -21 -18 -42 -25 -70 -25 -22 0 -45 -6 -52 -14 -6 -8
-18 -12 -26 -9 -7 3 -17 -2 -20 -11 -4 -10 -18 -16 -39 -16 -18 0 -35 -5 -37
-10 -2 -6 -30 -15 -63 -20 -33 -5 -61 -14 -63 -20 -7 -21 -34 -40 -57 -40 -12
0 -26 -7 -29 -16 -5 -12 -14 -14 -45 -9 -29 5 -42 2 -55 -10 -9 -10 -24 -14
-35 -10 -11 3 -34 -1 -50 -10 -18 -9 -41 -13 -55 -9 -13 3 -35 0 -48 -7 -12
-7 -27 -12 -31 -11 -4 1 -16 -2 -26 -7 -10 -6 -38 -11 -62 -12 -24 -1 -53 -7
-64 -14 -11 -6 -33 -15 -49 -19 -15 -4 -35 -14 -43 -21 -8 -8 -29 -15 -47 -15
-17 0 -37 -5 -44 -12 -6 -6 -28 -13 -49 -15 -92 -7 -106 -11 -115 -26 -6 -11
-22 -17 -48 -17 -22 0 -40 -4 -40 -10 0 -5 -20 -10 -44 -10 -25 0 -47 -4 -50
-8 -3 -5 -18 -10 -33 -11 -43 -2 -86 -8 -110 -16 -15 -5 -23 -3 -23 4 0 19
-15 12 -25 -11 -14 -31 -41 -35 -48 -6 -8 29 4 40 44 43 17 2 34 7 38 12 3 4
17 14 31 21 14 7 45 23 70 37 l45 24 -32 7 c-19 4 -30 11 -26 17 4 6 -3 8 -21
3 -31 -8 -78 2 -70 15 3 5 0 9 -7 9 -6 0 -18 8 -25 18 -9 11 -13 13 -14 4 0
-24 -20 -1 -20 24 0 13 -5 24 -11 24 -8 0 -10 -17 -6 -55 5 -49 3 -55 -13 -55
-10 0 -20 -9 -23 -20 -7 -28 -35 -25 -49 5 l-11 26 -29 -31 c-15 -17 -28 -33
-28 -35 0 -5 51 4 62 11 4 3 5 -2 2 -10 -6 -16 -54 -22 -68 -9 -4 4 -19 9 -34
11 -14 2 -32 8 -39 14 -10 8 -13 5 -13 -11 0 -19 -5 -21 -54 -18 -30 1 -49 5
-43 9 8 5 6 8 -5 8 -10 0 -18 5 -18 10 0 6 -19 10 -43 10 -36 0 -46 4 -57 25
-7 14 -17 25 -22 25 -4 0 -8 5 -8 10 0 6 9 10 21 10 11 0 18 -4 15 -9 -3 -4 9
-16 27 -26 31 -16 35 -16 65 -1 18 9 32 18 32 19 0 1 -15 2 -33 2 -20 0 -31 5
-30 13 2 7 -7 12 -22 12 -16 0 -25 6 -25 16 0 12 5 14 17 9 33 -14 76 -18 69
-7 -3 6 2 15 11 21 17 9 17 10 0 17 -10 4 -23 2 -30 -5 -6 -6 -22 -11 -36 -11
-13 0 -32 -7 -42 -16 -21 -19 -39 -11 -40 19 -1 17 -2 18 -6 5 -2 -10 -11 -18
-20 -18 -11 0 -14 7 -11 25 3 14 1 28 -4 31 -6 4 -5 10 3 15 11 8 11 11 -3 19
-14 8 -15 16 -8 35 8 20 6 29 -9 44 -16 16 -20 17 -25 5 -3 -8 1 -17 9 -20 8
-4 15 -12 15 -20 0 -17 -26 -18 -34 -1 -5 9 -7 9 -12 0 -8 -18 -34 -16 -34 2
0 8 7 15 15 15 8 0 15 5 15 10 0 6 -7 10 -15 10 -20 0 -20 46 0 54 8 3 15 13
15 21 0 12 6 15 20 10 18 -6 19 -3 13 27 -3 18 -17 53 -30 77 -16 29 -21 47
-14 54 7 7 5 19 -5 38 -15 31 -30 37 -37 17 -3 -10 -9 -9 -23 3 -22 18 -54 14
-54 -7 0 -22 -16 -16 -43 16 -14 16 -28 30 -31 30 -3 0 -6 -70 -6 -156 0 -147
1 -156 20 -161 11 -3 20 -10 20 -16 0 -5 7 -15 16 -22 15 -11 15 -14 0 -37
-12 -18 -23 -24 -36 -21 -20 5 -20 -2 -20 -320 l0 -325 24 -6 c18 -4 23 -11
19 -26 -5 -17 0 -20 26 -20 17 0 31 5 31 10 0 6 8 10 18 10 12 -1 8 -8 -18
-30 -40 -35 -60 -38 -60 -10 0 13 -7 20 -20 20 -19 0 -20 -7 -20 -144 0 -106
3 -146 13 -150 9 -5 9 -7 0 -12 -10 -4 -13 -119 -13 -490 l0 -484 3750 0 3750
0 0 1705 c0 938 -2 1705 -4 1705 -6 0 -28 -97 -32 -142 -4 -37 -69 -222 -85
-242 -38 -48 -56 -75 -67 -98 -6 -16 -16 -28 -22 -28 -5 0 -10 -6 -10 -14 0
-7 -15 -21 -32 -30 -41 -20 -64 -35 -104 -63 -67 -47 -171 -73 -209 -53 -13 7
-29 10 -37 8 -20 -8 -87 21 -140 59 -41 30 -63 56 -105 127 -6 10 -19 23 -27
28 -9 5 -16 16 -16 24 0 20 -41 74 -52 68 -4 -3 -8 4 -8 14 0 47 -77 56 -110
14 -11 -14 -20 -30 -20 -38 0 -7 -5 -14 -11 -16 -6 -2 -11 -20 -12 -41 0 -20
-5 -37 -9 -37 -4 0 -25 -18 -45 -40 -25 -26 -47 -40 -63 -40 -15 0 -30 -4 -35
-9 -23 -20 -121 -28 -213 -17 -52 6 -90 14 -86 18 4 5 2 8 -4 8 -7 0 -14 0
-17 0 -13 0 -45 42 -45 59 0 22 -47 64 -61 55 -5 -3 -9 4 -9 15 0 13 5 19 14
15 11 -4 13 4 8 43 -3 26 -11 54 -19 61 -7 7 -15 23 -17 35 -2 12 -9 47 -16
77 -15 66 -16 124 -5 208 7 53 5 65 -10 82 -15 16 -16 25 -7 44 9 19 8 25 -4
30 -10 4 -15 19 -14 48 1 24 -2 60 -5 80 -7 35 -6 37 21 44 16 4 40 12 54 19
53 26 136 57 151 57 9 0 29 13 45 29 18 19 39 29 58 30 17 1 24 3 15 6 -23 6
-16 74 12 120 13 21 23 42 21 46 -1 4 5 10 13 13 8 4 15 12 15 19 0 8 9 17 20
20 11 3 25 15 30 26 6 10 19 19 28 19 26 0 42 20 42 52 0 16 12 41 29 60 16
19 32 50 36 71 4 20 12 37 17 37 6 0 8 12 5 30 -4 16 -2 32 3 35 6 3 10 1 10
-4 0 -6 5 -11 10 -11 7 0 8 13 5 33 -5 25 -2 39 10 51 12 11 16 28 13 51 -2
19 -1 35 3 35 4 0 8 8 8 18 2 53 15 102 26 102 7 0 15 9 18 21 3 12 11 19 19
16 7 -2 27 1 44 8 17 7 44 10 59 7 19 -3 26 -1 21 7 -12 19 13 12 34 -9 16
-16 20 -17 20 -5 0 26 24 17 38 -14 7 -16 23 -32 35 -35 37 -10 117 -7 140 6
40 22 137 28 164 11 13 -8 61 -20 108 -25 47 -5 111 -18 142 -30 32 -11 70
-20 86 -19 16 0 27 -5 27 -13 0 -8 14 -16 33 -19 17 -3 42 -8 55 -12 20 -7 22
-4 22 30 0 24 -6 43 -17 51 -17 13 -17 13 0 14 16 0 17 42 17 729 0 574 -3
731 -12 735 -10 5 -10 7 0 12 9 4 12 130 12 580 l0 574 -1077 -1 c-611 0
-1069 -4 -1058 -9 16 -7 16 -9 4 -9 -9 -1 -30 -8 -45 -16 -16 -8 -48 -15 -71
-15 -24 0 -43 -4 -43 -9 0 -5 -15 -14 -32 -21 -80 -30 -105 -42 -116 -61 -10
-16 -9 -19 4 -19 11 0 15 -6 11 -20 -4 -16 -1 -19 16 -15 12 2 43 7 70 10 43
6 47 4 47 -14 0 -16 -6 -21 -25 -21 -14 0 -25 -5 -25 -11 0 -6 9 -9 20 -6 11
3 23 1 26 -4 7 -12 67 -11 101 2 15 6 47 8 71 4 35 -5 41 -9 32 -20 -6 -8 -18
-11 -26 -8 -8 3 -14 1 -14 -4 0 -13 -183 -37 -238 -32 -30 3 -42 1 -42 -9 0
-7 -7 -15 -15 -18 -8 -4 -12 -10 -9 -15 8 -13 48 -11 61 2 9 9 27 9 70 1 32
-6 67 -10 78 -9 12 1 20 -4 20 -13 0 -10 -10 -15 -27 -15 -34 -1 -47 -13 -28
-25 9 -5 19 -5 27 2 7 5 20 7 29 4 9 -4 23 -1 32 6 14 12 14 10 1 -10 -12 -19
-21 -23 -61 -21 -26 2 -50 0 -54 -4 -7 -7 19 -13 91 -21 46 -6 89 -26 55 -26
-13 0 -13 -2 0 -10 11 -7 7 -10 -17 -10 -45 0 -50 -18 -8 -26 27 -5 35 -10 30
-22 -3 -8 2 -26 10 -39 14 -21 14 -25 1 -38 -9 -9 -13 -29 -11 -52 4 -39 -3
-62 -14 -46 -8 12 -93 4 -85 -8 3 -5 27 -9 53 -9 26 0 56 -6 66 -14 17 -12 17
-14 2 -37 -19 -26 -23 -59 -8 -59 6 0 13 5 16 10 12 20 26 9 23 -17 -3 -25 0
-28 23 -25 17 1 29 -3 33 -13 7 -20 -20 -31 -39 -15 -8 6 -19 9 -25 5 -5 -3
-13 1 -16 9 -3 9 -14 16 -25 16 -21 0 -45 -35 -29 -45 5 -3 10 -15 10 -26 0
-14 -8 -19 -32 -21 -119 -7 -226 -24 -245 -39 -21 -18 -15 -29 17 -29 17 0 30
4 30 9 0 9 226 24 310 21 81 -3 104 -3 162 1 32 2 58 7 58 12 0 4 9 7 20 7 21
0 44 -32 32 -46 -4 -5 0 -3 10 4 9 8 17 9 20 3 1 -6 51 -11 111 -12 59 -1 110
-6 113 -10 2 -5 10 -6 17 -3 19 7 132 -22 130 -34 -1 -5 11 -15 28 -22 l30
-13 -41 -18 c-37 -17 -40 -21 -34 -46 4 -15 16 -36 28 -45 l21 -18 -26 0 c-23
0 -26 -4 -23 -27 2 -16 -6 -47 -16 -70 -11 -24 -20 -52 -20 -62 0 -11 -5 -32
-11 -48 -16 -38 -68 -289 -69 -325 0 -5 -31 -8 -69 -8 -50 0 -72 4 -81 15 -11
13 -9 19 11 32 13 10 39 31 57 49 17 18 32 29 32 26 0 -4 9 10 20 31 11 20 20
42 20 49 0 14 -33 87 -40 88 -16 0 -29 -20 -35 -53 -6 -30 -4 -37 9 -37 9 0
16 5 16 10 0 6 5 10 11 10 8 0 7 -5 -2 -16 -7 -9 -14 -23 -16 -32 -1 -9 -7
-18 -12 -20 -6 -2 -11 -10 -11 -18 0 -8 -7 -14 -15 -14 -9 0 -12 6 -9 15 4 8
10 15 15 15 5 0 9 9 9 20 0 11 -4 20 -10 20 -5 0 -10 16 -10 35 0 19 -4 35 -8
35 -10 0 -42 -71 -42 -94 0 -9 -4 -14 -10 -11 -5 3 -10 18 -10 31 0 16 -5 24
-12 21 -7 -2 -12 -10 -10 -16 1 -6 -5 -14 -13 -17 -8 -4 -15 -17 -15 -30 0
-13 -4 -24 -10 -24 -5 0 -10 14 -10 30 0 41 -13 38 -36 -10 -21 -43 -34 -51
-34 -20 0 31 -20 24 -27 -10 -6 -30 -37 -43 -45 -18 -6 17 -28 0 -28 -23 0
-13 -7 -19 -23 -19 -12 0 -30 -9 -39 -20 -14 -16 -25 -18 -64 -13 -35 4 -50 2
-58 -9 -6 -8 -18 -17 -26 -21 -13 -4 -12 -6 1 -6 9 -1 22 6 29 14 7 8 23 15
36 15 15 0 24 -6 24 -15 0 -8 -3 -15 -7 -15 -5 0 -16 -12 -26 -25 -17 -24 -17
-25 1 -25 11 0 31 12 46 27 18 18 30 23 37 16 7 -7 0 -20 -21 -42 -33 -33 -58
-39 -78 -19 -9 9 -12 9 -13 -3 -1 -7 -1 -17 0 -21 0 -5 -14 -8 -33 -8 -19 0
-38 -4 -41 -10 -3 -5 -15 -10 -26 -10 -11 0 -48 -9 -82 -21 -91 -31 -164 -49
-197 -49 -17 0 -30 -4 -30 -10 0 -16 -72 -11 -91 6 -10 9 -33 17 -52 19 -20 2
-44 8 -55 14 -12 6 -28 11 -37 11 -9 0 -31 6 -48 14 -67 29 -115 45 -121 39
-3 -4 -6 1 -6 10 0 8 -10 19 -22 23 -29 9 -128 108 -128 128 0 8 -12 24 -27
35 -59 44 -72 60 -99 112 -16 30 -32 56 -36 57 -4 2 -8 8 -8 14 0 22 -33 78
-46 78 -15 0 -15 0 -17 115 -1 44 1 85 6 91 4 6 3 24 -3 38 -13 35 10 45 46
21 32 -21 140 -17 227 8 32 9 86 17 120 17 63 0 289 47 295 62 2 4 9 8 15 8
24 0 96 33 91 41 -8 14 -41 10 -58 -6 -8 -8 -24 -15 -35 -15 -12 0 -21 -4 -21
-10 0 -5 -15 -10 -33 -10 -18 0 -38 -5 -45 -12 -13 -13 -299 -22 -332 -10 -20
7 -17 10 21 22 24 7 38 15 32 17 -15 6 -17 39 -3 48 17 11 -13 33 -42 31 -34
-3 -46 -13 -24 -22 26 -10 18 -24 -14 -24 -23 0 -30 4 -30 20 0 10 6 23 13 27
24 14 27 52 6 63 -27 15 -23 30 9 30 15 0 36 7 46 15 11 8 33 15 49 15 25 0
28 2 17 15 -21 26 -3 29 66 13 61 -15 65 -14 74 3 13 24 13 29 -5 29 -8 0 -15
-5 -15 -11 0 -5 -4 -7 -10 -4 -5 3 -9 17 -8 31 2 20 7 24 24 20 14 -4 27 2 41
17 32 38 33 43 6 42 -14 0 -28 6 -30 13 -3 8 9 12 39 13 39 0 101 17 71 18 -7
1 -12 11 -10 24 4 44 -91 30 -140 -22 -22 -22 -74 -34 -66 -15 2 7 15 15 29
18 25 7 34 26 12 26 -27 0 -85 -26 -108 -47 -15 -14 -36 -23 -57 -23 -18 0
-36 0 -40 -1 -4 0 -9 4 -11 10 -2 6 8 11 22 11 14 0 26 4 26 10 0 5 11 12 25
16 14 4 24 8 21 11 -9 9 36 44 50 39 9 -3 14 1 14 13 0 11 -6 21 -12 24 -15 5
20 42 54 58 19 8 15 9 -19 5 -24 -2 -45 0 -48 4 -6 10 -45 1 -45 -11 0 -5 -9
-9 -19 -9 -11 0 -21 -3 -23 -7 -7 -16 -68 -43 -97 -43 -20 0 -40 -10 -61 -30
-17 -16 -35 -30 -40 -30 -16 0 -11 37 5 44 17 6 20 32 5 41 -5 3 -16 -7 -24
-23 -21 -40 -71 -92 -89 -92 -9 0 -20 -12 -25 -27 -10 -27 -11 -28 -17 -5 -4
12 -11 22 -16 22 -18 0 3 136 24 151 4 3 2 28 -4 56 -12 49 -11 52 14 75 18
17 23 28 16 35 -14 14 11 73 48 111 15 17 35 40 43 51 8 12 18 21 22 21 12 0
10 -34 -3 -47 -15 -15 -3 -34 16 -26 9 3 15 -1 15 -11 0 -9 -4 -16 -10 -16 -5
0 -10 -7 -10 -16 0 -8 -4 -12 -10 -9 -5 3 -10 -1 -10 -10 0 -12 5 -15 23 -9
12 4 31 7 42 6 11 -1 36 12 55 29 19 16 47 32 62 36 18 3 32 16 40 34 16 36
44 35 41 -1 -1 -14 0 -19 3 -12 3 6 17 12 30 12 15 0 24 6 24 15 0 8 5 15 11
15 5 0 7 5 3 11 -5 8 -1 8 14 0 26 -14 82 -14 82 -1 0 6 6 10 13 11 13 0 62
57 55 65 -3 2 -23 -9 -45 -25 -21 -16 -50 -32 -64 -35 -16 -5 -20 -4 -11 2 8
5 13 13 11 18 -3 13 72 54 99 54 12 0 25 7 28 15 11 27 46 29 64 5 l17 -23 22
22 c12 12 35 24 51 27 16 4 31 12 34 20 5 12 -361 14 -2459 14 l-2465 0 0
-1624z m5440 1583 c0 -5 -12 -9 -26 -9 -22 0 -24 2 -14 14 12 15 40 11 40 -5z
m80 11 c0 -5 -5 -10 -11 -10 -5 0 -7 5 -4 10 3 6 8 10 11 10 2 0 4 -4 4 -10z
m174 -11 c-3 -5 -10 -7 -15 -3 -5 3 -7 10 -3 15 3 5 10 7 15 3 5 -3 7 -10 3
-15z m-985 7 c-2 -2 -21 -8 -41 -14 -30 -8 -36 -8 -31 4 3 8 19 14 41 14 19 0
33 -2 31 -4z m705 -37 c24 -14 43 -18 58 -14 22 7 21 6 -4 -18 -16 -14 -28
-29 -28 -32 0 -9 40 -5 62 6 14 8 23 8 31 0 6 -6 19 -11 30 -11 30 0 13 -25
-19 -27 -16 -1 -44 -5 -63 -9 -26 -5 -36 -3 -44 11 -6 12 -12 14 -16 6 -11
-17 -86 1 -86 19 0 9 -12 16 -30 18 -54 5 -60 10 -37 32 12 11 32 20 46 20 14
0 28 5 31 10 9 15 30 12 69 -11z m188 -41 c-9 -9 -15 -9 -24 0 -9 9 -7 12 12
12 19 0 21 -3 12 -12z m-1142 -27 c0 -22 -15 -35 -29 -27 -13 9 -1 46 15 46 8
0 14 -9 14 -19z m709 -21 c-17 -9 -79 -1 -79 10 0 13 52 17 74 7 15 -8 16 -11
5 -17z m171 -4 c0 -27 -15 -35 -54 -30 -64 9 -74 13 -56 24 15 9 110 14 110 6z
m413 -11 c-3 -12 -67 -22 -100 -16 -13 2 -23 10 -23 18 0 11 14 13 63 11 34
-2 61 -7 60 -13z m132 -5 c-3 -5 -10 -10 -16 -10 -5 0 -9 5 -9 10 0 6 7 10 16
10 8 0 12 -4 9 -10z m-1505 -20 c0 -5 -4 -10 -10 -10 -5 0 -10 5 -10 10 0 6 5
10 10 10 6 0 10 -4 10 -10z m1170 0 c0 -5 -7 -10 -15 -10 -8 0 -15 5 -15 10 0
6 7 10 15 10 8 0 15 -4 15 -10z m89 -89 c18 -11 5 -31 -20 -31 -12 0 -19 7
-19 20 0 21 16 26 39 11z m971 -10 c0 -5 8 -12 18 -14 13 -4 13 -5 -4 -6 -12
0 -27 6 -34 14 -10 12 -10 15 4 15 9 0 16 -4 16 -9z m73 -5 c10 -8 14 -17 9
-20 -15 -9 -42 4 -42 20 0 17 10 17 33 0z m-303 -55 c0 -12 -20 -25 -27 -18
-7 7 6 27 18 27 5 0 9 -4 9 -9z m390 -16 c0 -9 -9 -15 -21 -15 -18 0 -19 2 -9
15 7 8 16 15 21 15 5 0 9 -7 9 -15z m-536 -50 c3 -8 1 -15 -3 -15 -5 0 -11 7
-15 15 -3 8 -1 15 3 15 5 0 11 -7 15 -15z m476 -33 c0 -5 -7 -17 -15 -28 -14
-18 -14 -18 -15 9 0 17 5 27 15 27 8 0 15 -4 15 -8z m-1290 -46 c0 -9 -30 -14
-35 -6 -4 6 3 10 14 10 12 0 21 -2 21 -4z m123 -39 c3 -7 -4 -19 -14 -25 -17
-11 -19 -9 -19 13 0 26 24 35 33 12z m-133 -7 c0 -5 -4 -10 -10 -10 -5 0 -10
5 -10 10 0 6 5 10 10 10 6 0 10 -4 10 -10z m1080 -40 c0 -11 -4 -20 -10 -20
-5 0 -10 9 -10 20 0 11 5 20 10 20 6 0 10 -9 10 -20z m-2110 -50 c0 -5 -4 -10
-10 -10 -5 0 -10 5 -10 10 0 6 5 10 10 10 6 0 10 -4 10 -10z m-70 -14 c0 -3
-4 -8 -10 -11 -5 -3 -10 -1 -10 4 0 6 5 11 10 11 6 0 10 -2 10 -4z m-108 -18
c-9 -9 -15 -9 -24 0 -9 9 -7 12 12 12 19 0 21 -3 12 -12z m1190 -10 c-7 -7
-12 -8 -12 -2 0 14 12 26 19 19 2 -3 -1 -11 -7 -17z m-1031 -33 c0 -6 -10 -12
-23 -13 -19 -4 -20 -2 -9 12 15 17 33 18 32 1z m1085 -2 c18 -25 17 -33 -5
-33 -22 0 -45 25 -36 40 9 15 26 12 41 -7z m-1052 -98 c-6 -16 -22 -19 -48 -9
-28 11 -17 24 19 24 26 0 33 -3 29 -15z m1091 -15 c3 -5 -3 -10 -15 -10 -12 0
-18 5 -15 10 3 6 10 10 15 10 5 0 12 -4 15 -10z m-1345 -35 c0 -17 -27 -32
-37 -21 -4 3 2 13 13 21 24 18 24 18 24 0z m150 -36 c0 -5 -4 -9 -10 -9 -5 0
-10 7 -10 16 0 8 5 12 10 9 6 -3 10 -10 10 -16z m3107 -31 c-3 -8 -6 -5 -6 6
-1 11 2 17 5 13 3 -3 4 -12 1 -19z m-3140 6 c-3 -3 -12 -4 -19 -1 -8 3 -5 6 6
6 11 1 17 -2 13 -5z m-149 -36 c-3 -25 -17 -32 -37 -19 -12 8 -12 11 0 25 21
23 41 20 37 -6z m1887 -8 c3 -5 1 -10 -4 -10 -6 0 -11 5 -11 10 0 6 2 10 4 10
3 0 8 -4 11 -10z m-1645 -20 c16 0 21 -3 14 -10 -14 -14 -144 -13 -144 1 0 9
56 18 85 13 11 -2 31 -4 45 -4z m-270 -24 c0 -3 -4 -8 -10 -11 -5 -3 -10 -1
-10 4 0 6 5 11 10 11 6 0 10 -2 10 -4z m145 -6 c3 -5 17 -10 30 -10 34 0 42
-20 8 -21 -15 0 -36 -2 -45 -4 -10 -2 -18 1 -18 5 0 5 -3 15 -6 24 -7 18 21
23 31 6z m-85 -45 c0 -18 -4 -23 -15 -19 -15 6 -20 35 -9 47 12 11 24 -3 24
-28z m100 -31 c0 -8 6 -14 13 -14 9 0 8 -3 -2 -9 -17 -11 -47 -3 -63 16 -9 11
-9 16 1 23 18 11 51 1 51 -16z m-155 -103 c8 -14 -13 -24 -33 -16 -14 5 -14 7
-2 15 19 12 27 12 35 1z m2071 -18 c-10 -10 -19 5 -10 18 6 11 8 11 12 0 2 -7
1 -15 -2 -18z m661 -139 c-8 -8 -37 21 -37 38 0 7 9 4 22 -9 12 -13 19 -25 15
-29z m68 -75 c4 -10 11 -19 16 -19 5 0 9 -7 9 -15 0 -8 -4 -15 -10 -15 -5 0
-10 6 -10 13 0 7 -9 18 -20 25 -11 7 -20 19 -20 27 0 20 28 8 35 -16z m125
-80 c0 -5 -7 -9 -15 -9 -9 0 -12 6 -9 15 6 15 24 11 24 -6z m-624 0 c4 -8 9
-8 17 0 16 16 54 13 61 -5 5 -13 14 -15 42 -9 43 8 69 -11 79 -57 11 -50 -36
-87 -134 -103 -51 -9 -71 2 -71 37 0 22 -5 31 -21 35 -18 5 -20 11 -16 38 3
21 0 41 -9 54 -14 20 -14 21 15 21 16 0 33 -5 37 -11z m-165 -72 c-13 -13 -15
11 -4 40 7 16 8 15 11 -6 2 -13 -1 -28 -7 -34z m-368 -12 c4 -8 2 -17 -3 -20
-6 -4 -10 3 -10 14 0 25 6 27 13 6z m-1773 -70 c0 -24 46 -65 72 -65 14 0 33
-9 43 -20 15 -17 16 -24 5 -50 -7 -16 -17 -30 -23 -30 -6 0 4 -12 22 -28 31
-26 32 -29 20 -56 -13 -28 -14 -29 -84 -23 -38 3 -87 11 -107 17 -34 10 -37
13 -31 40 5 29 5 30 -36 30 -22 0 -41 5 -41 10 0 6 -11 10 -25 10 -14 0 -43
11 -65 25 -22 14 -42 25 -46 25 -9 0 -34 28 -34 38 0 6 5 12 10 14 6 2 12 21
14 43 3 32 8 41 25 43 26 4 88 -32 72 -42 -16 -10 -14 -26 4 -26 8 0 23 -4 33
-9 9 -5 32 -15 50 -22 19 -7 39 -17 46 -24 6 -6 30 -14 53 -17 41 -6 42 -5 31
15 -6 12 -14 24 -18 27 -12 9 -40 91 -35 101 9 13 45 -8 45 -26z m1710 20 c0
-8 -4 -15 -10 -15 -5 0 -10 7 -10 15 0 8 5 15 10 15 6 0 10 -7 10 -15z m790
-80 c0 -8 -5 -15 -11 -15 -8 0 -8 -5 1 -15 7 -8 23 -15 36 -15 20 0 24 -5 24
-33 0 -18 4 -37 8 -42 5 -6 17 -32 26 -60 10 -27 24 -64 32 -82 8 -17 14 -40
14 -51 0 -12 5 -24 10 -27 6 -3 10 -17 10 -31 0 -13 4 -24 9 -24 5 0 11 -15
14 -32 3 -18 13 -71 22 -117 17 -87 14 -124 -7 -103 -8 8 -15 8 -24 1 -9 -8
-17 -3 -30 16 -18 28 -64 159 -64 185 0 13 -1 13 -10 0 -8 -13 -10 -12 -10 3
0 9 -4 17 -10 17 -5 0 -10 -9 -10 -20 0 -11 5 -20 10 -20 6 0 10 -13 10 -29 0
-16 7 -47 15 -70 8 -23 17 -65 21 -94 6 -46 5 -50 -9 -37 -34 35 -119 226
-152 345 -9 33 -21 70 -26 83 -10 26 -12 66 -3 75 7 6 34 -17 34 -28 0 -36
102 -177 117 -162 3 4 1 13 -5 19 -7 7 -12 18 -12 25 0 7 -15 45 -33 85 -19
40 -39 87 -46 104 -14 36 -22 124 -11 124 4 0 10 9 13 20 6 24 47 28 47 5z
m-921 -19 c-12 -10 -59 -15 -59 -6 0 5 14 10 32 10 17 0 29 -2 27 -4z m-79
-28 c0 -4 -9 -8 -20 -8 -11 0 -20 -4 -20 -10 0 -5 -10 -10 -22 -10 l-23 0 25
19 c24 19 60 24 60 9z m210 5 c-1 -23 -20 -34 -56 -31 l-39 3 30 16 c32 18 65
24 65 12z m910 -65 c6 -13 15 -31 22 -40 7 -9 9 -21 4 -25 -11 -12 -46 35 -46
63 0 30 8 31 20 2z m-830 -8 c0 -5 -22 -10 -49 -10 -34 0 -51 -4 -55 -15 -3
-9 -18 -15 -36 -15 -16 0 -30 -4 -30 -10 0 -6 -32 -10 -75 -10 -43 0 -75 4
-75 10 0 6 12 10 28 10 15 0 36 7 46 15 11 8 37 15 57 15 21 0 41 5 44 10 3 6
37 10 76 10 39 0 69 -4 69 -10z m320 -51 c0 -5 -4 -9 -10 -9 -5 0 -10 7 -10
16 0 8 5 12 10 9 6 -3 10 -10 10 -16z m-1880 6 c0 -2 -8 -19 -19 -38 -10 -18
-22 -48 -26 -66 -8 -38 -27 -48 -61 -33 -32 15 -31 32 4 32 30 0 52 34 52 82
0 23 4 28 25 28 14 0 25 -2 25 -5z m1220 -25 c0 -5 -13 -10 -30 -10 -16 0 -30
5 -30 10 0 6 14 10 30 10 17 0 30 -4 30 -10z m679 -81 c1 -64 -10 -139 -20
-139 -5 0 -9 11 -9 25 0 16 -6 25 -16 25 -8 0 -12 5 -9 10 3 6 -3 10 -14 10
-12 0 -21 5 -21 10 0 6 9 10 20 10 11 0 20 5 20 11 0 5 4 7 10 4 14 -9 24 43
11 59 -9 11 -9 19 1 35 12 19 13 19 20 3 3 -9 7 -38 7 -63z m-769 63 c0 -12
-23 -32 -37 -32 -7 0 -13 9 -13 20 0 15 7 20 25 20 14 0 25 -4 25 -8z m-115
-42 c-10 -11 -31 -20 -46 -20 -15 0 -31 -4 -34 -10 -3 -5 -17 -10 -29 -10 -13
0 -37 -7 -52 -15 -16 -8 -37 -15 -46 -15 -9 0 -20 -4 -23 -10 -3 -5 -17 -10
-31 -10 -13 0 -24 -5 -24 -10 0 -7 -6 -7 -20 0 -28 15 -25 30 5 30 14 0 52 9
83 19 32 11 69 22 83 25 13 2 49 13 79 24 72 25 76 26 55 2z m-340 -110 c-3
-5 1 -10 9 -10 9 0 16 -4 16 -10 0 -5 -18 -10 -40 -10 -44 0 -49 6 -22 26 20
16 46 18 37 4z m1929 -26 c23 -9 20 -24 -4 -24 -11 0 -20 7 -20 15 0 17 2 18
24 9z m-3194 -19 c0 -8 -4 -15 -10 -15 -5 0 -10 7 -10 15 0 8 5 15 10 15 6 0
10 -7 10 -15z m2169 -2 c3 -5 17 -10 31 -11 14 0 26 -6 28 -12 2 -5 10 -10 19
-10 31 0 5 -25 -30 -28 -24 -2 -34 -7 -31 -16 3 -7 -2 -19 -11 -26 -8 -7 -15
-25 -15 -40 0 -30 -48 -90 -72 -90 -8 0 -23 6 -34 14 -14 11 -22 12 -33 3 -8
-7 -52 -11 -112 -10 -100 1 -121 -6 -99 -32 10 -12 10 -15 -1 -15 -19 -1 38
-50 57 -50 8 0 14 -4 14 -10 0 -5 -5 -10 -11 -10 -8 0 -8 -5 1 -15 7 -8 21
-15 32 -15 17 0 18 3 8 15 -10 12 -10 15 4 15 9 0 16 -7 16 -16 0 -9 7 -14 18
-12 9 1 23 -1 30 -5 6 -5 18 -5 25 0 6 4 40 6 73 4 37 -1 64 2 68 8 4 6 23 11
42 11 19 0 34 5 34 10 0 6 7 10 15 10 25 0 65 23 65 37 0 7 6 13 14 13 8 0 17
6 19 13 4 7 6 6 6 -5 1 -9 -5 -23 -13 -30 -34 -32 -57 -48 -71 -48 -8 0 -15
-4 -15 -10 0 -5 -8 -10 -18 -10 -10 0 -27 -7 -38 -15 -10 -8 -31 -15 -46 -15
-15 0 -30 -4 -33 -10 -3 -5 -37 -10 -75 -10 -38 0 -72 5 -75 10 -3 6 -28 10
-55 10 -31 0 -71 9 -106 25 -31 14 -63 25 -70 25 -8 0 -14 5 -14 10 0 6 -8 10
-17 10 -10 0 -49 16 -87 35 -37 19 -74 35 -81 35 -8 0 -15 5 -17 10 -2 6 -34
13 -72 17 -48 4 -63 9 -52 15 9 5 14 14 10 19 -3 5 -2 9 3 8 28 -5 34 2 19 23
-39 55 -31 59 291 129 23 5 57 9 77 9 19 0 36 5 38 10 2 6 37 12 78 13 41 1
84 8 95 15 23 15 163 11 174 -5z m295 -68 c-3 -14 -10 -25 -15 -25 -10 0 -11
25 -2 59 5 19 7 21 15 8 5 -9 6 -28 2 -42z m-1119 4 c11 -17 -1 -21 -15 -4 -8
9 -8 15 -2 15 6 0 14 -5 17 -11z m2405 -15 c0 -8 -10 -14 -25 -14 -29 0 -30 3
-9 24 17 18 34 13 34 -10z m-117 -9 c-3 -13 -53 -20 -53 -7 0 15 13 23 35 20
11 -2 19 -7 18 -13z m-2965 -27 c-3 -7 -13 -13 -23 -13 -10 0 -20 6 -22 13 -3
7 5 12 22 12 17 0 25 -5 23 -12z m1751 -59 l-22 -22 6 33 c4 18 13 40 20 48
10 13 12 12 15 -11 2 -16 -5 -34 -19 -48z m851 41 c0 -5 -7 -10 -15 -10 -8 0
-15 5 -15 10 0 6 7 10 15 10 8 0 15 -4 15 -10z m-3182 -52 c15 -20 24 -58 13
-58 -8 0 -41 54 -41 67 0 8 18 2 28 -9z m3212 2 c0 -5 -7 -10 -15 -10 -8 0
-15 5 -15 10 0 6 7 10 15 10 8 0 15 -4 15 -10z m-917 -47 c-7 -3 -13 -12 -13
-21 0 -13 -2 -14 -12 -3 -11 10 -9 15 6 27 11 7 22 11 25 8 3 -4 0 -9 -6 -11z
m-1699 -42 c9 -14 -4 -41 -20 -41 -8 0 -14 8 -14 18 0 29 22 43 34 23z m3061
0 c3 -5 1 -12 -4 -15 -12 -8 -41 3 -41 15 0 12 37 12 45 0z m-2150 -60 c55
-27 116 -56 136 -65 55 -24 64 -40 35 -60 -14 -9 -30 -16 -36 -16 -5 0 -10 -4
-10 -9 0 -5 -10 -11 -23 -15 -13 -3 -34 -14 -46 -25 -34 -30 -106 -54 -136
-47 -53 14 -75 56 -94 188 -5 31 -11 61 -15 66 -3 6 -3 18 0 27 11 26 73 12
189 -44z m-437 -24 c4 -32 -21 -37 -50 -10 -22 19 -24 37 -3 30 8 -4 17 -2 21
4 10 17 29 4 32 -24z m27 13 c3 -5 1 -10 -4 -10 -6 0 -11 5 -11 10 0 6 2 10 4
10 3 0 8 -4 11 -10z m187 -67 c5 -7 18 -43 28 -82 11 -42 28 -80 44 -98 14
-15 26 -33 26 -40 0 -24 -19 -23 -36 1 -9 16 -29 28 -50 32 -43 8 -69 51 -59
98 3 17 8 47 11 66 2 19 7 46 11 60 l7 25 4 -25 c2 -14 8 -30 14 -37z m1020
-4 c20 -9 23 -16 20 -47 -2 -20 -13 -57 -24 -82 -12 -25 -22 -57 -23 -71 -3
-33 -36 -109 -47 -109 -4 0 -8 -7 -8 -15 0 -31 -146 -204 -174 -206 -7 0 -6
-3 2 -6 17 -7 -40 -56 -98 -85 -30 -15 -69 -24 -115 -26 -69 -4 -72 -3 -102
29 -18 17 -30 36 -27 41 3 4 -2 8 -10 8 -9 0 -16 5 -16 10 0 6 -10 10 -22 10
-19 0 -20 2 -8 10 8 5 26 10 40 10 35 0 154 45 193 72 42 30 95 96 97 120 0
11 -32 -4 -54 -24 -11 -10 -23 -18 -28 -18 -4 0 -8 -7 -8 -15 0 -8 -4 -15 -9
-15 -5 0 -16 -6 -23 -13 -19 -18 -66 -37 -93 -37 -13 0 -27 -4 -30 -10 -9 -15
-108 -12 -147 4 -40 17 -53 31 -61 66 -5 22 -1 27 36 43 23 9 50 17 60 17 9 0
17 5 17 10 0 6 9 10 20 10 22 0 93 31 98 43 2 4 10 7 18 7 7 0 29 9 49 20 20
11 45 20 56 20 11 0 26 6 34 13 7 6 26 22 42 34 15 12 43 35 62 52 19 17 41
31 50 31 12 0 12 3 3 12 -20 20 15 48 60 48 21 0 38 5 38 10 0 6 10 10 23 10
12 1 33 7 47 15 31 17 33 18 62 4z m1263 1 c3 -5 -3 -10 -14 -10 -12 0 -21 5
-21 10 0 6 6 10 14 10 8 0 18 -4 21 -10z m-1687 -51 c2 -5 21 -9 42 -9 58 0
104 -11 88 -21 -7 -5 -23 -9 -35 -9 -23 0 -32 -15 -14 -22 25 -9 -72 -85 -149
-117 -30 -12 -64 -26 -75 -31 -11 -5 -54 -21 -95 -34 -93 -30 -136 -25 -147
19 -17 64 -17 64 23 82 21 10 53 33 72 51 19 17 39 32 44 32 19 0 78 50 78 66
0 12 13 13 83 8 45 -4 84 -11 85 -15z m-419 -159 c4 0 6 -13 3 -30 -2 -16 -8
-27 -13 -24 -5 3 -7 10 -4 15 4 5 -1 12 -9 15 -9 3 -16 13 -16 21 0 10 6 13
16 9 9 -3 19 -6 23 -6z m-101 -82 c15 -15 16 -84 2 -93 -6 -4 -10 6 -10 23 0
16 -7 35 -15 42 -8 7 -15 19 -15 26 0 17 22 18 38 2z m122 -19 c0 -5 -5 -9
-11 -9 -12 0 -7 -89 6 -110 4 -6 11 -61 17 -123 23 -255 28 -307 36 -412 5
-60 12 -121 16 -135 4 -14 11 -79 16 -145 5 -66 11 -133 14 -150 3 -16 12
-138 21 -270 9 -132 21 -256 26 -276 5 -20 9 -88 10 -150 0 -63 6 -155 12
-206 7 -51 11 -111 9 -133 -4 -35 -7 -41 -26 -38 -19 3 -21 9 -19 58 1 30 -3
111 -8 180 -6 69 -13 179 -15 245 -3 66 -9 138 -14 160 -5 22 -10 81 -11 130
-2 50 -6 104 -11 121 -4 17 -13 89 -18 160 -31 382 -41 485 -58 604 -6 41 -16
131 -22 200 -7 69 -16 147 -21 174 -7 38 -6 56 6 79 8 17 15 38 15 48 0 12 5
16 15 13 8 -4 15 -10 15 -15z m-4017 -1583 c8 3 53 -2 99 -10 47 -9 106 -16
131 -16 26 0 47 -4 47 -10 0 -5 7 -10 15 -10 22 0 18 -15 -7 -27 -56 -25 -101
-33 -195 -33 -168 0 -180 7 -145 81 11 25 21 34 28 28 6 -5 18 -7 27 -3z
m1682 -303 c14 -15 25 -33 25 -40 0 -6 6 -13 13 -16 9 -3 9 -7 -2 -20 -14 -17
-45 -15 -84 5 -18 9 -18 10 -1 29 15 17 16 24 6 39 -16 25 -15 30 3 30 8 0 26
-12 40 -27z m-137 -11 c2 -7 -3 -12 -12 -12 -9 0 -16 7 -16 16 0 17 22 14 28
-4z m532 -66 c0 -11 -19 -15 -25 -6 -3 5 1 10 9 10 9 0 16 -2 16 -4z m100 -70
c0 -3 -4 -8 -10 -11 -5 -3 -10 -1 -10 4 0 6 5 11 10 11 6 0 10 -2 10 -4z
m-1480 -91 c0 -27 -6 -30 -29 -16 -17 11 -7 41 14 41 9 0 15 -9 15 -25z m330
-40 c0 -18 -5 -25 -20 -25 -15 0 -20 7 -20 25 0 18 5 25 20 25 15 0 20 -7 20
-25z m2833 -95 c-3 -11 -14 -20 -24 -20 -12 0 -19 7 -19 20 0 14 7 20 24 20
19 0 23 -4 19 -20z m307 -71 c0 -13 -7 -19 -24 -19 -26 0 -40 22 -24 38 15 15
48 2 48 -19z m-204 -36 c18 -24 17 -58 -1 -73 -23 -19 -18 -39 11 -50 18 -7
24 -15 20 -26 -3 -9 -9 -26 -12 -39 -4 -18 -14 -24 -50 -28 -51 -5 -61 -11
-47 -29 18 -25 9 -43 -20 -41 -24 2 -27 -1 -25 -25 3 -23 -1 -27 -24 -30 -25
-3 -28 -7 -28 -44 0 -29 -6 -45 -22 -59 -28 -23 -37 -23 -60 -2 -17 15 -19 15
-38 -2 -14 -13 -17 -22 -10 -29 13 -13 13 -46 0 -46 -5 0 -10 -13 -10 -29 0
-35 -19 -52 -48 -44 -26 6 -29 37 -7 59 16 17 20 34 7 34 -5 0 -27 -17 -50
-38 -39 -36 -55 -72 -32 -72 16 0 12 -27 -5 -34 -22 -8 -18 -37 5 -43 12 -3
20 -12 18 -21 -5 -24 -24 -25 -46 -2 -13 14 -22 18 -27 11 -3 -6 -16 -11 -29
-11 -24 0 -61 -32 -49 -43 12 -13 54 -7 59 8 7 18 44 20 44 2 0 -7 -14 -26
-31 -43 l-30 -29 -18 24 c-16 21 -19 22 -34 7 -23 -24 -67 -21 -67 4 0 24 -22
35 -47 25 -17 -6 -17 -7 0 -19 16 -13 16 -15 -10 -45 -15 -17 -33 -31 -40 -31
-9 0 -11 -9 -6 -31 5 -25 2 -31 -16 -36 -14 -3 -21 -13 -21 -29 0 -21 -5 -24
-40 -24 -38 0 -40 -2 -40 -30 0 -17 -5 -30 -12 -30 -13 0 -38 44 -38 67 0 7
-5 13 -10 13 -6 0 -10 -8 -8 -17 2 -15 -4 -18 -34 -18 -23 0 -42 -6 -50 -17
-7 -9 -24 -18 -38 -20 -19 -2 -26 -10 -28 -30 -3 -23 -8 -28 -30 -28 -35 0
-59 -15 -42 -25 9 -5 2 -17 -22 -39 -32 -30 -40 -32 -118 -34 -46 -1 -86 -4
-88 -7 -3 -2 -4 -16 -4 -30 0 -24 -31 -53 -50 -47 -5 1 -9 -2 -9 -8 -1 -5 -3
-14 -4 -20 -1 -5 -3 -17 -4 -25 -1 -19 -25 -19 -55 0 -16 11 -31 13 -52 6 -16
-5 -48 -14 -72 -20 -31 -9 -46 -19 -53 -37 -8 -23 -13 -25 -49 -19 -44 7 -57
-1 -78 -48 -7 -16 -27 -34 -47 -43 -19 -8 -35 -19 -35 -24 0 -6 -11 -10 -25
-10 -17 0 -39 -14 -65 -42 -36 -40 -42 -42 -104 -46 -54 -4 -70 -9 -92 -30
-25 -26 -26 -26 -39 -8 -12 16 -12 22 3 42 9 13 21 22 27 20 5 -1 23 16 39 38
42 59 51 66 80 66 14 0 26 4 26 10 0 5 16 24 35 43 32 31 34 37 25 62 -15 41
0 50 74 47 l62 -2 32 44 c25 35 31 50 26 75 -5 22 -3 31 7 32 8 0 28 2 44 2
23 2 31 7 33 25 2 12 -2 22 -9 22 -9 0 -8 4 1 15 7 8 24 15 39 15 34 0 83 40
88 71 6 39 22 47 42 20 23 -30 51 -22 51 14 0 14 5 25 10 25 6 0 10 11 10 24
0 17 9 28 35 40 19 9 37 21 40 26 3 6 21 10 39 10 26 0 35 6 45 26 9 22 17 25
41 22 20 -3 30 0 30 9 0 7 -9 13 -20 13 -24 0 -26 22 -4 55 9 13 13 29 9 34
-7 12 52 51 78 51 18 0 24 -34 7 -45 -17 -10 -11 -25 10 -25 12 0 20 7 20 16
0 9 14 21 30 27 33 13 42 47 12 47 -27 0 -32 9 -19 31 8 12 23 19 44 19 32 0
43 -12 23 -25 -12 -7 -4 -25 11 -25 5 0 9 6 9 14 0 8 7 16 15 20 20 7 19 33
-1 44 -28 16 -7 31 33 25 32 -5 35 -4 30 11 -4 10 -7 25 -7 33 0 13 -3 13 -15
3 -19 -15 -30 -6 -39 31 -7 32 3 37 61 31 30 -3 44 -9 48 -23 5 -15 10 -17 25
-9 10 6 30 10 43 10 27 0 41 22 32 50 -4 12 1 19 15 23 13 3 20 0 20 -9 0 -7
9 -18 19 -23 15 -8 20 -7 25 6 4 9 2 19 -4 23 -16 10 16 66 43 75 12 4 42 13
67 19 40 10 44 14 45 41 0 22 4 29 15 26 8 -3 29 -4 45 -3 17 1 46 2 67 2 22
1 39 7 42 16 3 8 12 14 21 14 8 0 15 4 15 9 0 9 36 23 93 35 22 5 27 11 22 26
-6 18 -2 20 32 20 43 0 57 7 66 33 3 9 14 17 23 17 9 0 29 11 46 25 35 29 85
33 104 8z m1294 -20 c-1 -19 -19 -35 -34 -30 -26 10 -19 37 9 37 14 0 25 -3
25 -7z m-6430 -42 c14 -27 13 -31 -9 -31 -21 0 -31 17 -23 38 6 18 20 15 32
-7z m63 -22 c-9 -9 -12 -7 -10 9 1 14 5 18 11 12 7 -7 6 -14 -1 -21z m5137
-13 c0 -21 -21 -31 -30 -15 -5 7 -6 17 -4 21 9 14 34 9 34 -6z m-3855 -16 c-3
-5 -10 -10 -16 -10 -5 0 -9 5 -9 10 0 6 7 10 16 10 8 0 12 -4 9 -10z m3932 -8
c31 -23 17 -44 -22 -34 -20 6 -31 16 -33 30 -4 27 23 29 55 4z m-5227 -17 c6
-8 17 -13 22 -12 6 1 13 -4 15 -10 3 -7 -1 -13 -9 -13 -14 1 -58 34 -58 44 0
11 18 6 30 -9z m5454 -11 c4 -9 4 -19 2 -22 -10 -9 -36 8 -36 23 0 20 26 19
34 -1z m-244 -44 c0 -11 -2 -20 -4 -20 -2 0 -11 -3 -19 -6 -15 -5 -31 21 -21
37 11 18 44 10 44 -11z m78 -60 c-3 -19 0 -31 10 -35 14 -5 14 -37 -4 -177
l-6 -46 -36 5 c-21 3 -37 6 -38 7 0 1 1 20 4 43 2 27 8 40 15 36 7 -4 8 0 2
13 -15 36 -17 62 -6 68 6 4 11 19 11 33 0 27 29 83 43 83 5 0 7 -13 5 -30z
m-984 -36 c9 -22 8 -24 -9 -24 -8 0 -15 9 -15 20 0 24 15 27 24 4z m-254 -49
c0 -28 -24 -34 -34 -9 -10 26 -7 34 14 34 15 0 20 -7 20 -25z m-3340 0 c0 -8
-4 -15 -9 -15 -13 0 -22 16 -14 24 11 11 23 6 23 -9z m110 -16 c0 -5 -7 -6
-15 -2 -9 3 -24 -2 -34 -11 -10 -9 -21 -13 -25 -9 -11 11 35 41 55 36 11 -3
19 -9 19 -14z m4309 12 c11 -7 11 -12 -2 -31 l-15 -22 -12 21 c-17 33 -1 51
29 32z m-4873 -69 c-22 -5 -30 3 -21 18 5 8 11 7 22 -2 15 -12 14 -13 -1 -16z
m3738 -100 c7 -11 -4 -24 -36 -45 -34 -21 -48 -22 -48 -1 0 8 5 12 10 9 6 -3
10 0 10 7 0 29 50 52 64 30z m1296 -54 c0 -14 -18 -8 -24 7 -3 8 -15 15 -26
15 -25 0 -27 17 -2 23 15 3 51 -28 52 -45z m-5330 32 c0 -5 -8 -10 -17 -10
-15 0 -16 2 -3 10 19 12 20 12 20 0z m3844 1 c9 -14 -19 -43 -38 -40 -16 4
-16 5 1 26 19 24 29 28 37 14z m-3306 -49 c2 -7 -6 -12 -17 -12 -21 0 -27 11
-14 24 9 9 26 2 31 -12z m62 8 c0 -5 -4 -10 -10 -10 -5 0 -10 5 -10 10 0 6 5
10 10 10 6 0 10 -4 10 -10z m2925 -10 c4 -6 -8 -10 -30 -10 -22 0 -34 4 -30
10 3 6 17 10 30 10 13 0 27 -4 30 -10z m1775 -16 c0 -12 -2 -12 -14 -2 -8 7
-12 16 -9 21 7 11 23 -2 23 -19z m-1553 5 c22 -8 24 -12 13 -19 -23 -15 -70
-12 -70 3 0 28 15 32 57 16z m-120 -15 c-3 -3 -12 -4 -19 -1 -8 3 -5 6 6 6 11
1 17 -2 13 -5z m1653 -26 c0 -5 -4 -8 -10 -8 -5 0 -10 10 -10 23 0 18 2 19 10
7 5 -8 10 -18 10 -22z m-3785 2 c-3 -5 -13 -10 -21 -10 -8 0 -14 5 -14 10 0 6
9 10 21 10 11 0 17 -4 14 -10z m3388 -4 c9 -24 -4 -56 -24 -56 -24 0 -32 16
-25 46 7 26 40 33 49 10z m-1307 -11 c-16 -17 -36 -20 -36 -6 0 8 17 16 43 20
5 0 2 -6 -7 -14z m-3356 -3 c0 -14 -11 -21 -26 -15 -21 8 -17 23 6 23 11 0 20
-4 20 -8z m1354 -1 c3 -5 -3 -11 -14 -14 -13 -3 -20 0 -20 9 0 15 26 19 34 5z
m66 -1 c0 -5 -7 -10 -15 -10 -8 0 -15 5 -15 10 0 6 7 10 15 10 8 0 15 -4 15
-10z m-234 -37 c-11 -11 -17 4 -9 23 7 18 8 18 11 1 2 -10 1 -21 -2 -24z m-66
-29 c0 -8 7 -14 15 -14 8 0 15 -7 15 -15 0 -8 -7 -15 -15 -15 -8 0 -15 7 -15
15 0 8 -4 15 -10 15 -5 0 -10 9 -10 21 0 11 5 17 10 14 6 -3 10 -13 10 -21z
m150 16 c0 -5 -7 -10 -15 -10 -8 0 -15 5 -15 10 0 6 7 10 15 10 8 0 15 -4 15
-10z m1405 0 c-3 -5 -10 -10 -16 -10 -5 0 -9 5 -9 10 0 6 7 10 16 10 8 0 12
-4 9 -10z m140 0 c3 -5 -1 -10 -9 -10 -8 0 -18 5 -21 10 -3 6 1 10 9 10 8 0
18 -4 21 -10z m295 0 c0 -5 -2 -10 -4 -10 -3 0 -8 5 -11 10 -3 6 -1 10 4 10 6
0 11 -4 11 -10z m-1800 -21 c0 -5 -4 -9 -10 -9 -5 0 -10 7 -10 16 0 8 5 12 10
9 6 -3 10 -10 10 -16z m1290 2 c0 -5 -11 -12 -25 -15 -27 -7 -49 0 -41 12 6
10 66 13 66 3z m949 -34 c-7 -15 -20 -27 -30 -27 -9 0 -19 -6 -22 -12 -3 -9
-8 -10 -15 -3 -8 7 -1 21 25 48 39 42 62 38 42 -6z m-3581 11 c-7 -19 -38 -22
-38 -4 0 10 9 16 21 16 12 0 19 -5 17 -12z m842 3 c0 -5 -7 -16 -15 -25 -19
-19 -19 -32 0 -40 9 -3 18 1 21 9 6 15 35 20 47 9 14 -14 -29 -44 -65 -44 -21
0 -38 -2 -38 -4 0 -20 16 -36 36 -36 27 0 32 -17 9 -26 -8 -4 -15 -14 -15 -24
0 -15 -11 -20 -45 -26 -25 -3 -54 -4 -65 -1 -12 3 -24 -1 -29 -11 -8 -14 -10
-14 -25 1 -18 18 -41 14 -50 -9 -6 -15 -49 -10 -73 9 -9 6 -18 5 -28 -3 -19
-16 -19 -34 0 -50 9 -8 12 -17 7 -22 -13 -13 -42 1 -42 21 0 12 -5 10 -20 -9
-11 -14 -20 -20 -20 -15 0 6 -5 3 -10 -5 -8 -13 -10 -13 -10 2 0 10 -10 23
-22 29 -35 18 -38 29 -18 65 20 35 17 44 -14 44 -15 0 -17 -3 -8 -12 17 -17
15 -33 -3 -18 -8 7 -15 23 -15 35 0 34 -10 55 -26 55 -8 0 -14 7 -14 15 0 19
16 20 23 1 7 -18 47 -9 47 10 0 12 38 14 91 5 3 -1 11 -13 18 -28 12 -26 14
-27 26 -10 9 13 23 17 47 15 28 -2 33 -7 30 -25 -2 -13 2 -23 7 -23 6 0 11 -3
11 -8 0 -4 -36 -7 -79 -7 -76 0 -81 -2 -105 -30 -24 -28 -26 -45 -4 -45 6 0
16 7 22 16 13 18 78 33 142 34 28 0 44 5 48 15 3 8 10 15 16 15 5 0 10 -7 10
-15 0 -8 9 -15 20 -15 26 0 28 39 3 41 -51 3 -50 2 -44 41 0 7 9 4 21 -7 11
-10 20 -14 20 -8 0 5 21 9 46 8 38 -1 48 2 52 17 2 10 9 18 14 18 6 0 8 9 5
21 -3 12 2 28 11 39 18 19 52 26 52 11z m-106 -11 c38 -14 32 -30 -10 -30 -23
0 -41 -6 -49 -17 -7 -9 -19 -14 -29 -10 -23 9 -20 27 5 27 12 0 23 8 26 20 6
22 19 25 57 10z m856 2 c0 -4 -5 -13 -12 -20 -18 -18 -28 -15 -28 8 0 13 7 20
20 20 11 0 20 -4 20 -8z m135 -2 c-3 -5 -13 -10 -21 -10 -8 0 -14 -4 -14 -10
0 -5 -7 -10 -15 -10 -8 0 -15 5 -15 10 0 6 7 10 15 10 8 0 15 5 15 10 0 6 9
10 21 10 11 0 17 -4 14 -10z m63 -7 c15 -15 15 -16 1 -11 -9 4 -21 2 -27 -4
-6 -6 -12 -6 -16 1 -4 6 0 11 9 11 9 0 13 5 10 10 -10 16 5 12 23 -7z m1692
10 c0 -5 -4 -15 -10 -23 -11 -18 -25 -7 -17 15 6 15 27 21 27 8z m-2927 -9 c6
-7 -14 -44 -24 -44 -4 0 -10 8 -13 17 -8 21 21 43 37 27z m2787 -14 c0 -5 -16
-10 -35 -10 -19 0 -35 5 -35 10 0 6 16 10 35 10 19 0 35 -4 35 -10z m50 0 c0
-5 -9 -10 -20 -10 -11 0 -20 5 -20 10 0 6 9 10 20 10 11 0 20 -4 20 -10z
m-2354 -35 c-5 -26 -2 -37 9 -41 27 -11 16 -25 -17 -22 -27 2 -34 8 -36 30 -4
33 13 68 34 68 12 0 14 -8 10 -35z m48 4 c-10 -16 -24 -9 -24 12 0 18 2 19 15
9 8 -7 12 -16 9 -21z m796 16 c0 -8 -9 -15 -20 -15 -22 0 -27 15 -7 23 21 9
27 7 27 -8z m94 9 c27 -10 19 -32 -9 -26 -25 4 -31 13 -18 25 8 8 8 8 27 1z
m-1477 -24 c-1 -11 -7 -20 -14 -20 -7 0 -13 9 -13 20 0 11 6 20 14 20 9 0 14
-9 13 -20z m458 0 c17 -19 15 -50 -4 -50 -9 0 -41 50 -41 65 0 12 28 3 45 -15z
m245 10 c0 -5 -4 -10 -10 -10 -5 0 -10 5 -10 10 0 6 5 10 10 10 6 0 10 -4 10
-10z m1970 0 c0 -5 -7 -10 -16 -10 -8 0 -12 5 -9 10 3 6 10 10 16 10 5 0 9 -4
9 -10z m-1900 -20 c0 -6 10 -8 23 -5 18 5 26 0 37 -19 7 -14 10 -29 5 -33 -4
-5 -10 -2 -12 5 -3 6 -9 12 -15 12 -5 0 -16 7 -24 15 -9 8 -27 15 -40 15 -14
0 -22 4 -19 10 8 13 45 13 45 0z m167 -2 c-2 -7 -12 -12 -22 -11 -10 1 -25 -5
-33 -13 -17 -18 -36 -14 -40 9 -2 11 6 17 30 20 64 8 70 7 65 -5z m1003 2 c0
-5 -4 -10 -10 -10 -5 0 -10 5 -10 10 0 6 5 10 10 10 6 0 10 -4 10 -10z m-657
-31 c-1 -48 -3 -59 -13 -59 -5 0 -10 21 -10 46 0 31 4 44 12 42 7 -3 12 -15
11 -29z m-258 11 c3 -5 -1 -10 -10 -10 -9 0 -13 5 -10 10 3 6 8 10 10 10 2 0
7 -4 10 -10z m120 -1 c10 -15 -1 -23 -20 -15 -9 3 -13 10 -10 16 8 13 22 13
30 -1z m-1440 -9 c3 -5 1 -10 -4 -10 -19 0 -12 -18 10 -23 12 -3 22 0 26 9 8
21 41 17 48 -6 8 -24 -1 -39 -28 -49 -12 -5 -22 -17 -22 -27 0 -11 -8 -20 -20
-22 -42 -7 -51 -14 -25 -21 16 -5 25 -14 25 -26 0 -16 -8 -21 -44 -23 -24 -2
-50 -1 -59 3 -13 5 -12 8 4 20 26 19 10 31 -49 39 -43 5 -48 4 -57 -18 -10
-28 -46 -40 -54 -19 -10 24 -7 33 9 33 8 0 15 6 15 13 1 13 45 67 56 67 4 0
13 -8 19 -17 13 -17 14 -17 32 0 25 22 33 22 33 -2 0 -27 13 -33 37 -16 17 12
20 22 16 60 -5 36 -3 45 10 45 9 0 19 -4 22 -10z m1026 -11 c9 -11 20 -20 23
-20 25 3 36 -1 36 -14 0 -20 -49 -67 -61 -59 -16 10 -9 24 11 24 11 0 20 7 20
15 0 11 -5 12 -25 5 -26 -10 -85 5 -85 21 0 5 -9 9 -20 9 -11 0 -20 5 -20 10
0 14 43 13 57 -1 13 -13 33 -4 33 17 0 20 10 18 31 -7z m483 13 c2 -4 1 -14
-4 -22 -7 -11 -11 -11 -24 3 -9 8 -16 18 -16 21 0 9 38 7 44 -2z m866 -2 c0
-5 -7 -10 -15 -10 -8 0 -15 5 -15 10 0 6 7 10 15 10 8 0 15 -4 15 -10z m800 0
c0 -5 -4 -10 -10 -10 -5 0 -10 5 -10 10 0 6 5 10 10 10 6 0 10 -4 10 -10z
m-1550 -21 c0 -5 -7 -9 -15 -9 -15 0 -20 12 -9 23 8 8 24 -1 24 -14z m-1728
-18 c-21 -22 -35 -16 -22 9 6 11 17 17 24 14 12 -5 12 -9 -2 -23z m818 23 c0
-3 -5 -14 -10 -25 -15 -28 -40 -24 -40 6 0 20 5 25 25 25 14 0 25 -3 25 -6z
m2315 -4 c3 -5 1 -10 -4 -10 -6 0 -11 5 -11 10 0 6 2 10 4 10 3 0 8 -4 11 -10z
m1075 1 c0 -19 -13 -41 -24 -41 -14 0 -37 35 -29 44 10 10 53 7 53 -3z m-2802
-29 c2 -7 -3 -12 -12 -12 -9 0 -16 7 -16 16 0 17 22 14 28 -4z m-523 -1 c3 -5
1 -12 -5 -16 -5 -3 -10 1 -10 9 0 18 6 21 15 7z m1335 3 c0 -4 -8 -13 -17 -20
-21 -16 -63 -18 -63 -4 0 6 14 10 31 10 17 0 28 4 24 10 -3 6 1 10 9 10 9 0
16 -3 16 -6z m290 -4 c0 -5 -2 -10 -4 -10 -3 0 -8 5 -11 10 -3 6 -1 10 4 10 6
0 11 -4 11 -10z m-2749 -23 c-1 -12 -15 -9 -19 4 -3 6 1 10 8 8 6 -3 11 -8 11
-12z m69 3 c0 -5 -4 -10 -10 -10 -5 0 -10 5 -10 10 0 6 5 10 10 10 6 0 10 -4
10 -10z m1182 -2 c-6 -7 -25 -13 -43 -13 -18 0 -34 6 -36 13 -3 8 9 12 42 12
37 0 45 -3 37 -12z m638 4 c0 -9 -40 -35 -46 -29 -3 2 -2 12 2 21 6 16 44 23
44 8z m1205 -2 c-3 -5 -10 -10 -16 -10 -5 0 -9 5 -9 10 0 6 7 10 16 10 8 0 12
-4 9 -10z m-1425 -30 c0 -17 -17 -37 -25 -29 -2 2 -1 16 2 31 6 30 23 28 23
-2z m-360 11 c0 -14 -18 -23 -30 -16 -6 4 -8 11 -5 16 8 12 35 12 35 0z m801
-4 c-1 -12 -15 -9 -19 4 -3 6 1 10 8 8 6 -3 11 -8 11 -12z m-1028 -11 c6 -15
-1 -26 -15 -26 -4 0 -8 9 -8 20 0 23 15 27 23 6z m397 -18 c0 -14 -5 -18 -16
-14 -9 3 -18 6 -20 6 -2 0 -4 6 -4 13 0 7 9 13 20 14 14 1 20 -4 20 -19z m100
1 c0 -5 -7 -9 -15 -9 -15 0 -20 12 -9 23 8 8 24 -1 24 -14z m2816 -4 c13 -12
12 -15 -6 -25 -28 -15 -57 5 -39 26 15 18 27 18 45 -1z m-4316 -15 c0 -5 -6
-10 -14 -10 -8 0 -18 5 -21 10 -3 6 3 10 14 10 12 0 21 -4 21 -10z m400 -19
c0 -22 -71 -53 -91 -40 -11 7 -9 12 11 26 60 43 80 47 80 14z m740 19 c0 -5
-4 -10 -10 -10 -5 0 -10 5 -10 10 0 6 5 10 10 10 6 0 10 -4 10 -10z m680 6 c0
-3 -4 -8 -10 -11 -5 -3 -10 -1 -10 4 0 6 5 11 10 11 6 0 10 -2 10 -4z m-936
-21 c3 -9 0 -15 -8 -15 -8 0 -16 7 -20 15 -3 9 0 15 8 15 8 0 16 -7 20 -15z
m186 -10 c0 -17 -2 -18 -24 -9 -23 9 -20 24 4 24 11 0 20 -7 20 -15z m2070 9
c0 -8 -32 -33 -42 -34 -3 0 -4 9 -1 20 5 18 43 30 43 14z m-3165 -37 c13 -10
15 -16 6 -21 -17 -11 -41 0 -41 19 0 19 11 19 35 2z m110 -16 c0 -8 -4 -16
-10 -18 -16 -5 -38 14 -30 26 9 16 40 9 40 -8z m595 1 c0 -5 -11 -19 -25 -32
-22 -21 -25 -21 -25 -5 0 10 8 24 18 31 20 15 32 18 32 6z m820 -2 c0 -5 -4
-10 -10 -10 -5 0 -10 5 -10 10 0 6 5 10 10 10 6 0 10 -4 10 -10z m530 0 c0 -5
-4 -10 -10 -10 -5 0 -10 5 -10 10 0 6 5 10 10 10 6 0 10 -4 10 -10z m-2196 -6
c21 -8 22 -45 1 -39 -49 16 -48 15 -35 30 14 17 13 17 34 9z m1916 -15 c0 -5
-4 -9 -10 -9 -5 0 -10 7 -10 16 0 8 5 12 10 9 6 -3 10 -10 10 -16z m-1430 1
c0 -5 -4 -10 -10 -10 -5 0 -10 -7 -10 -15 0 -8 -6 -15 -13 -15 -25 0 -26 12
-4 31 25 21 37 24 37 9z m120 0 c0 -5 -7 -10 -16 -10 -8 0 -12 5 -9 10 3 6 10
10 16 10 5 0 9 -4 9 -10z m440 0 c0 -5 -9 -10 -21 -10 -11 0 -17 5 -14 10 3 6
13 10 21 10 8 0 14 -4 14 -10z m965 0 c3 -5 1 -10 -4 -10 -6 0 -11 5 -11 10 0
6 2 10 4 10 3 0 8 -4 11 -10z m242 -15 c-15 -16 -28 -10 -21 10 3 7 12 11 19
8 11 -4 12 -8 2 -18z m-1327 -11 c0 -2 -7 -4 -15 -4 -8 0 -15 4 -15 10 0 5 7
7 15 4 8 -4 15 -8 15 -10z m-890 -24 c0 -5 -4 -10 -10 -10 -5 0 -10 5 -10 10
0 6 5 10 10 10 6 0 10 -4 10 -10z m280 -2 c0 -6 8 -20 17 -30 11 -13 14 -22 6
-26 -5 -4 -13 -17 -17 -29 -10 -31 -36 -30 -36 2 0 14 5 25 11 25 11 0 9 16
-6 53 -5 12 -2 17 9 17 9 0 16 -5 16 -12z m245 2 c3 -5 -1 -10 -9 -10 -9 0
-19 0 -23 -1 -4 0 -9 4 -11 10 -5 14 35 14 43 1z m2525 0 c0 -5 -4 -10 -10
-10 -5 0 -10 5 -10 10 0 6 5 10 10 10 6 0 10 -4 10 -10z m-2864 -27 c-10 -10
-19 5 -10 18 6 11 8 11 12 0 2 -7 1 -15 -2 -18z m380 -50 c-3 -3 -13 -3 -22 1
-16 6 -15 8 2 21 16 12 19 12 22 -1 2 -9 1 -18 -2 -21z m3454 -24 c0 -5 -4 -9
-10 -9 -5 0 -10 7 -10 16 0 8 5 12 10 9 6 -3 10 -10 10 -16z m-2430 1 c0 -5
-2 -10 -4 -10 -3 0 -8 5 -11 10 -3 6 -1 10 4 10 6 0 11 -4 11 -10z m847 4 c-3
-3 -12 -4 -19 -1 -8 3 -5 6 6 6 11 1 17 -2 13 -5z m-577 -44 c0 -5 -4 -10 -10
-10 -5 0 -10 5 -10 10 0 6 5 10 10 10 6 0 10 -4 10 -10z m1627 -162 c-3 -8 -6
-5 -6 6 -1 11 2 17 5 13 3 -3 4 -12 1 -19z m-676 -241 c-13 -13 -26 -3 -16 12
3 6 11 8 17 5 6 -4 6 -10 -1 -17z"/>
<path d="M6396 5794 c-9 -22 -8 -24 9 -24 8 0 15 9 15 20 0 24 -15 27 -24 4z"/>
<path d="M6610 5220 c0 -5 5 -10 10 -10 6 0 10 5 10 10 0 6 -4 10 -10 10 -5 0
-10 -4 -10 -10z"/>
<path d="M6103 4755 c0 -27 2 -38 4 -22 2 15 2 37 0 50 -2 12 -4 0 -4 -28z"/>
<path d="M4398 1238 c-37 -13 -36 -28 2 -28 23 0 30 4 30 20 0 11 -1 20 -2 19
-2 0 -15 -5 -30 -11z"/>
<path d="M687 1294 c-15 -16 -6 -34 18 -34 14 0 25 5 25 10 0 6 -6 10 -14 10
-8 0 -16 5 -18 11 -2 5 -7 7 -11 3z"/>
<path d="M800 1270 c0 -5 5 -10 10 -10 6 0 10 5 10 10 0 6 -4 10 -10 10 -5 0
-10 -4 -10 -10z"/>
<path d="M1023 1262 c-35 -5 -29 -32 7 -32 19 0 30 5 30 14 0 19 -9 23 -37 18z"/>
<path d="M498 1213 c7 -3 16 -2 19 1 4 3 -2 6 -13 5 -11 0 -14 -3 -6 -6z"/>
<path d="M4946 7335 c4 -8 1 -15 -7 -15 -7 0 -10 -3 -6 -6 7 -7 77 14 92 27 5
5 -10 9 -38 9 -37 0 -45 -3 -41 -15z"/>
<path d="M5260 7340 c0 -5 9 -10 20 -10 11 0 20 5 20 10 0 6 -9 10 -20 10 -11
0 -20 -4 -20 -10z"/>
<path d="M5170 7320 c-22 -6 -23 -8 -7 -15 10 -4 28 -3 39 2 29 13 3 22 -32
13z"/>
<path d="M4895 7290 c4 -6 11 -8 16 -5 14 9 11 15 -7 15 -8 0 -12 -5 -9 -10z"/>
<path d="M5071 7281 c-11 -11 -22 -17 -25 -13 -3 3 -6 -2 -6 -11 0 -23 16 -21
33 4 9 12 27 21 46 21 16 1 28 5 25 10 -9 15 -54 8 -73 -11z"/>
<path d="M4989 7269 c-10 -6 -7 -9 14 -9 29 0 35 5 14 13 -8 3 -20 1 -28 -4z"/>
<path d="M4760 7220 c0 -13 11 -13 30 0 12 8 11 10 -7 10 -13 0 -23 -4 -23
-10z"/>
<path d="M4950 7194 c-22 -8 -55 -11 -90 -8 -41 5 -66 1 -98 -12 -23 -10 -42
-22 -42 -26 0 -11 48 -10 52 1 2 5 50 11 107 14 56 3 108 10 114 16 6 6 19 11
29 11 10 0 18 5 18 10 0 14 -47 11 -90 -6z"/>
<path d="M4658 7123 c7 -3 16 -2 19 1 4 3 -2 6 -13 5 -11 0 -14 -3 -6 -6z"/>
<path d="M4958 7123 c6 -2 18 -2 25 0 6 3 1 5 -13 5 -14 0 -19 -2 -12 -5z"/>
<path d="M4445 7109 c-4 -6 -5 -13 -2 -16 7 -7 27 6 27 18 0 12 -17 12 -25 -2z"/>
<path d="M4918 7103 c7 -3 16 -2 19 1 4 3 -2 6 -13 5 -11 0 -14 -3 -6 -6z"/>
<path d="M4675 7080 c-3 -5 1 -10 9 -10 9 0 16 5 16 10 0 6 -4 10 -9 10 -6 0
-13 -4 -16 -10z"/>
<path d="M4830 7010 c0 -5 7 -10 16 -10 8 0 12 5 9 10 -3 6 -10 10 -16 10 -5
0 -9 -4 -9 -10z"/>
<path d="M4880 6990 c0 -5 15 -10 33 -10 24 0 28 3 17 10 -20 13 -50 13 -50 0z"/>
<path d="M4998 6983 c6 -2 18 -2 25 0 6 3 1 5 -13 5 -14 0 -19 -2 -12 -5z"/>
<path d="M4661 6919 c-18 -16 -31 -33 -28 -36 3 -3 13 2 22 11 9 9 21 16 26
16 5 0 19 9 31 20 21 19 21 20 2 20 -11 0 -35 -14 -53 -31z"/>
<path d="M5328 6593 c7 -3 16 -2 19 1 4 3 -2 6 -13 5 -11 0 -14 -3 -6 -6z"/>
<path d="M5284 6500 c0 -12 7 -20 16 -20 9 0 16 8 16 20 0 12 -7 20 -16 20 -9
0 -16 -8 -16 -20z"/>
<path d="M4453 6440 c-13 -5 -23 -15 -23 -22 0 -18 92 -18 98 1 9 26 -32 38
-75 21z"/>
<path d="M5198 6423 c6 -2 18 -2 25 0 6 3 1 5 -13 5 -14 0 -19 -2 -12 -5z"/>
<path d="M4990 6330 c0 -5 11 -10 25 -10 14 0 25 5 25 10 0 6 -11 10 -25 10
-14 0 -25 -4 -25 -10z"/>
<path d="M5996 6245 c-3 -8 -1 -15 4 -15 6 0 10 7 10 15 0 8 -2 15 -4 15 -2 0
-6 -7 -10 -15z"/>
<path d="M5821 5939 c-58 -11 -124 -37 -191 -74 -30 -16 -72 -39 -92 -50 -20
-10 -35 -23 -32 -27 3 -4 -4 -8 -15 -8 -11 0 -28 -11 -39 -25 -11 -14 -26 -25
-34 -25 -29 0 -178 -111 -178 -134 0 -5 -7 -17 -16 -27 -32 -36 7 -67 40 -33
15 14 16 14 16 0 0 -9 5 -16 10 -16 6 0 10 -5 10 -11 0 -6 -7 -9 -14 -6 -10 4
-13 1 -9 -9 3 -8 18 -14 35 -14 26 0 29 2 18 15 -7 8 -10 22 -6 30 4 10 -1 15
-14 15 -27 0 -25 15 4 28 14 6 43 27 64 47 22 19 45 35 51 35 6 0 11 6 11 13
0 7 19 28 41 47 23 19 47 40 55 47 7 7 16 13 21 13 4 1 24 14 43 30 19 17 40
30 47 30 7 0 13 5 13 10 0 6 11 10 24 10 13 0 26 3 28 8 7 15 67 42 97 42 37
0 83 20 78 34 -5 14 -16 15 -66 5z"/>
<path d="M5880 5631 c0 -5 -10 -12 -22 -15 -20 -6 -21 -7 -6 -16 12 -7 25 -5
47 7 37 22 39 33 6 33 -14 0 -25 -4 -25 -9z"/>
<path d="M5387 5563 c-12 -12 -7 -22 8 -17 8 4 15 10 15 15 0 11 -14 12 -23 2z"/>
<path d="M5180 5510 c-9 -6 -10 -10 -3 -10 6 0 15 5 18 10 8 12 4 12 -15 0z"/>
<path d="M3378 3523 c12 -2 30 -2 40 0 9 3 -1 5 -23 4 -22 0 -30 -2 -17 -4z"/>
<path d="M761 3504 c-48 -20 -60 -41 -61 -101 0 -45 4 -54 29 -76 64 -54 147
-43 182 24 35 70 18 128 -47 155 -42 17 -60 17 -103 -2z"/>
<path d="M7485 3497 c-4 -10 -5 -21 -1 -24 10 -10 18 4 13 24 -4 17 -4 17 -12
0z"/>
<path d="M110 3465 c-9 -10 -10 -37 -5 -92 3 -43 8 -114 10 -158 2 -44 4 -86
4 -92 1 -7 5 -13 11 -13 5 0 9 73 10 185 0 102 -4 185 -9 185 -5 0 -14 -7 -21
-15z"/>
<path d="M0 2729 c0 -19 4 -21 38 -15 20 3 56 6 80 6 23 0 42 3 42 8 0 4 -24
7 -52 7 -29 1 -65 4 -80 8 -24 6 -28 4 -28 -14z"/>
<path d="M2275 2560 c-8 -13 15 -24 27 -12 6 6 4 11 -6 15 -8 3 -18 2 -21 -3z"/>
<path d="M117 2379 c8 -8 16 -8 30 0 16 9 14 10 -11 11 -22 0 -27 -3 -19 -11z"/>
<path d="M863 2248 c4 -15 46 -17 64 -5 7 5 19 7 28 4 8 -4 17 -2 20 3 4 6
-19 10 -55 10 -45 0 -61 -3 -57 -12z"/>
<path d="M1000 2200 c0 -5 7 -10 15 -10 8 0 15 5 15 10 0 6 -7 10 -15 10 -8 0
-15 -4 -15 -10z"/>
<path d="M710 2169 c0 -5 5 -7 10 -4 6 3 10 8 10 11 0 2 -4 4 -10 4 -5 0 -10
-5 -10 -11z"/>
<path d="M473 2106 c-31 -15 -29 -26 6 -26 29 0 57 21 44 33 -8 9 -23 7 -50
-7z"/>
<path d="M304 2076 c-10 -8 -16 -17 -12 -21 3 -4 16 3 27 14 24 24 15 28 -15
7z"/>
<path d="M0 2020 c0 -5 4 -10 9 -10 6 0 13 5 16 10 3 6 -1 10 -9 10 -9 0 -16
-4 -16 -10z"/>
<path d="M957 1983 c-12 -11 -8 -33 6 -33 6 0 19 5 27 10 13 9 13 11 0 20 -18
12 -24 12 -33 3z"/>
<path d="M882 1945 c2 -19 10 -31 21 -33 24 -5 22 21 -4 44 -21 19 -21 19 -17
-11z"/>
<path d="M380 1944 c0 -12 -6 -15 -24 -10 -28 7 -46 -11 -21 -20 20 -8 65 15
65 33 0 7 -4 13 -10 13 -5 0 -10 -7 -10 -16z"/>
<path d="M560 1950 c0 -5 7 -10 16 -10 8 0 12 5 9 10 -3 6 -10 10 -16 10 -5 0
-9 -4 -9 -10z"/>
<path d="M770 1946 c0 -9 5 -16 10 -16 6 0 10 4 10 9 0 6 -4 13 -10 16 -5 3
-10 -1 -10 -9z"/>
<path d="M697 1924 c-11 -12 3 -24 28 -24 18 0 23 4 19 15 -6 15 -35 20 -47 9z"/>
<path d="M863 1913 c-7 -3 -13 -11 -13 -20 0 -8 6 -13 13 -10 6 2 20 0 30 -5
9 -5 17 -5 17 0 0 15 -34 40 -47 35z"/>
<path d="M948 1903 c7 -3 16 -2 19 1 4 3 -2 6 -13 5 -11 0 -14 -3 -6 -6z"/>
<path d="M985 1900 c3 -5 8 -10 11 -10 2 0 4 5 4 10 0 6 -5 10 -11 10 -5 0 -7
-4 -4 -10z"/>
<path d="M540 1870 c0 -13 11 -13 30 0 12 8 11 10 -7 10 -13 0 -23 -4 -23 -10z"/>
<path d="M730 1851 c0 -13 29 -35 37 -27 3 3 1 6 -5 6 -7 0 -12 7 -12 15 0 8
-4 15 -10 15 -5 0 -10 -4 -10 -9z"/>
<path d="M563 1820 c-1 -12 4 -20 13 -20 9 0 14 7 12 17 -4 24 -23 27 -25 3z"/>
<path d="M448 1783 c7 -3 16 -2 19 1 4 3 -2 6 -13 5 -11 0 -14 -3 -6 -6z"/>
<path d="M470 1770 c-8 -5 -10 -10 -5 -10 6 0 17 5 25 10 8 5 11 10 5 10 -5 0
-17 -5 -25 -10z"/>
<path d="M538 1753 c7 -3 16 -2 19 1 4 3 -2 6 -13 5 -11 0 -14 -3 -6 -6z"/>
</g>
</svg>
version="1.0" encoding="UTF-8" standalone="no"?><!DOCTYPE svg PUBLIC "-//W3C//DTD SVG 1.1//EN" "http://www.w3.org/Graphics/SVG/1.1/DTD/svg11.dtd"><svg width="100%" height="100%" viewBox="0 0 37 34" version="1.1" xmlns="http://www.w3.org/2000/svg" xmlns:xlink="http://www.w3.org/1999/xlink" xml:space="preserve" xmlns:serif="http://www.serif.com/" style="fill-rule:evenodd;clip-rule:evenodd;stroke-linecap:round;stroke-linejoin:round;"><path d="M34.352,26.438l-31.2,0.26c-0.828,0.007 -1.5,-0.672 -1.5,-1.5l-0,-5.063c-0,-0.828 0.671,-1.5 1.5,-1.5l31.417,0.456l-0.217,7.347Z" style="fill:#a57939;fill-rule:nonzero;"/><path d="M15.812,26.828l-13.41,-0c-0.828,-0 -1.5,0.525 -1.5,1.174l-0,3.524c-0,0.649 0.671,1.175 1.5,1.175l31.5,-0c0.828,-0 1.5,-0.526 1.5,-1.175l-0,-3.524c-0,-0.649 -0.672,-1.174 -1.5,-1.174l-13.343,-0" style="fill:#f4aa41;fill-rule:nonzero;"/><path d="M27.152,26.7l6.75,-0c0.828,-0 1.5,0.538 1.5,1.201l-0,3.602c-0,0.663 -0.672,1.201 -1.5,1.201l-6.75,-0l-0,-6.004Z" style="fill:#e27022;fill-rule:nonzero;"/><path d="M35.402,10.373c-0,0.543 -0.672,0.984 -1.5,0.984l-31.5,-0c-0.828,-0 -1.5,-0.441 -1.5,-0.984c1.113,-5.599 8.407,-9.923 17.25,-9.923c8.842,0 16.14,4.324 17.25,9.923Z" style="fill:#f4aa41;fill-rule:nonzero;"/><path d="M22.652,1.08c2.305,2.474 3.867,5.867 4.5,10.253l6.75,-0c0.828,-0 1.5,-0.431 1.5,-0.961c-1.125,-5.401 -7.995,-8.648 -12.75,-9.293l-0,0.001Z" style="fill:#e27022;fill-rule:nonzero;"/><path d="M23.919,18.115l-12.323,-0l6.162,6.161l6.161,-6.161Z" style="fill:#fcea2b;fill-rule:nonzero;"/><path d="M27.152,18.585l-0,8.115l6,-0c0.828,-0 1.5,-0.672 1.5,-1.5l-0,-5.063c-0,-0.828 -0.672,-1.5 -1.5,-1.5l-5,0" style="fill:#6a462f;fill-rule:nonzero;"/><rect x="3.399" y="13.125" width="29.513" height="1.57" style="fill:#ea5a47;stroke:#ea5a47;stroke-width:1.5px;"/><rect x="27.932" y="13.125" width="4.996" height="1.595" style="fill:#d22f27;stroke:#d22f27;stroke-width:1.5px;"/><path d="M3.069,17.543l30.435,-0.288c1.659,-0.363 1.889,-0.765 2.049,-1.7c-1.396,0.95 -2.476,0.959 -3.436,1.079c-1.74,-0.009 -3.347,0.018 -4.45,-1.388l-4.498,-0.335l-3.253,1.436l-3.254,-0.048l-3.589,-1.244l-3.828,-0.192c-0.916,1.106 -2.641,1.427 -3.684,1.771c-1.601,-0.295 -3.314,0.606 -4.799,-1.079c0.367,1.154 0.374,1.48 2.31,1.988l-0.003,-0Z" style="fill:#b1cc33;fill-rule:nonzero;stroke:#b1cc33;stroke-width:1.5px;stroke-linecap:butt;"/><path d="M27.917,18.105l5.578,-0.85c1.659,-0.364 1.889,-0.766 2.049,-1.701c-1.396,0.95 -2.476,0.959 -3.436,1.079c-1.74,-0.009 -1.566,-0.015 -3.06,-0.764l-1.131,-0.654l-0,2.89Z" style="fill:#5c9e31;fill-rule:nonzero;stroke:#5c9e31;stroke-width:1.5px;stroke-linecap:butt;"/><rect x="27.932" y="13.125" width="3.139" height="1.595" style="fill:#d22f27;stroke:#d22f27;stroke-width:1.5px;stroke-linejoin:miter;"/><path d="M33.152,26.7l-30,-0c-0.828,-0 -1.5,-0.672 -1.5,-1.5l-0,-5.063c-0,-0.828 0.671,-1.5 1.5,-1.5l30,0c0.828,0 1.5,0.672 1.5,1.5l-0,5.063c-0,0.828 -0.672,1.5 -1.5,1.5Z" style="fill:none;fill-rule:nonzero;stroke:#000;stroke-width:1.5px;stroke-miterlimit:10;"/><path d="M33.902,26.828l-31.5,-0c-0.828,-0 -1.5,0.525 -1.5,1.174l-0,3.524c-0,0.649 0.671,1.175 1.5,1.175l31.5,-0c0.828,-0 1.5,-0.526 1.5,-1.175l-0,-3.524c-0,-0.649 -0.672,-1.174 -1.5,-1.174Z" style="fill:none;fill-rule:nonzero;stroke:#000;stroke-width:1.5px;stroke-miterlimit:10;"/><path d="M35.402,10.673c-0,0.543 -0.672,0.984 -1.5,0.984l-31.5,-0c-0.828,-0 -1.5,-0.441 -1.5,-0.985c1.113,-5.598 8.407,-9.922 17.25,-9.922c8.842,0 16.14,4.324 17.25,9.923Z" style="fill:none;fill-rule:nonzero;stroke:#000;stroke-width:1.5px;stroke-miterlimit:10;"/><path d="M23.582,18.923l-10.86,-0.001l5.431,5.374l5.429,-5.374Z" style="fill:none;fill-rule:nonzero;stroke:#000;stroke-width:1.5px;stroke-miterlimit:10;"/><path d="M35.544,15.3c-0.571,0.297 -1.018,0.615 -1.865,0.752c-1.026,0.269 -2.384,0.164 -3.452,-0c-1.446,-0.234 -1.726,-0.995 -3.451,-1.281c-1.068,-0.165 -2.384,-0.165 -3.452,-0c-1.724,0.286 -2.005,1.047 -3.451,1.281c-1.068,0.164 -2.384,0.164 -3.452,-0c-1.446,-0.234 -1.726,-0.995 -3.451,-1.281c-1.068,-0.165 -2.384,-0.165 -3.452,-0c-1.724,0.286 -2.005,1.047 -3.451,1.281c-1.068,0.164 -2.384,0.164 -3.452,-0c-0.847,-0.137 -1.294,-0.455 -1.865,-0.752" style="fill:none;fill-rule:nonzero;stroke:#000;stroke-width:1.5px;stroke-miterlimit:10;"/></svg>
