<?xml version="1.0" encoding="UTF-8" standalone="no"?><!DOCTYPE svg PUBLIC "-//W3C//DTD SVG 1.1//EN" "http://www.w3.org/Graphics/SVG/1.1/DTD/svg11.dtd"><svg width="100%" height="100%" viewBox="0 0 37 34" version="1.1" xmlns="http://www.w3.org/2000/svg" xmlns:xlink="http://www.w3.org/1999/xlink" xml:space="preserve" xmlns:serif="http://www.serif.com/" style="fill-rule:evenodd;clip-rule:evenodd;stroke-linecap:round;stroke-linejoin:round;"><path d="M34.352,26.438l-31.2,0.26c-0.828,0.007 -1.5,-0.672 -1.5,-1.5l-0,-5.063c-0,-0.828 0.671,-1.5 1.5,-1.5l31.417,0.456l-0.217,7.347Z" style="fill:#a57939;fill-rule:nonzero;"/><path d="M15.812,26.828l-13.41,-0c-0.828,-0 -1.5,0.525 -1.5,1.174l-0,3.524c-0,0.649 0.671,1.175 1.5,1.175l31.5,-0c0.828,-0 1.5,-0.526 1.5,-1.175l-0,-3.524c-0,-0.649 -0.672,-1.174 -1.5,-1.174l-13.343,-0" style="fill:#f4aa41;fill-rule:nonzero;"/><path d="M27.152,26.7l6.75,-0c0.828,-0 1.5,0.538 1.5,1.201l-0,3.602c-0,0.663 -0.672,1.201 -1.5,1.201l-6.75,-0l-0,-6.004Z" style="fill:#e27022;fill-rule:nonzero;"/><path d="M35.402,10.373c-0,0.543 -0.672,0.984 -1.5,0.984l-31.5,-0c-0.828,-0 -1.5,-0.441 -1.5,-0.984c1.113,-5.599 8.407,-9.923 17.25,-9.923c8.842,0 16.14,4.324 17.25,9.923Z" style="fill:#f4aa41;fill-rule:nonzero;"/><path d="M22.652,1.08c2.305,2.474 3.867,5.867 4.5,10.253l6.75,-0c0.828,-0 1.5,-0.431 1.5,-0.961c-1.125,-5.401 -7.995,-8.648 -12.75,-9.293l-0,0.001Z" style="fill:#e27022;fill-rule:nonzero;"/><path d="M23.919,18.115l-12.323,-0l6.162,6.161l6.161,-6.161Z" style="fill:#fcea2b;fill-rule:nonzero;"/><path d="M27.152,18.585l-0,8.115l6,-0c0.828,-0 1.5,-0.672 1.5,-1.5l-0,-5.063c-0,-0.828 -0.672,-1.5 -1.5,-1.5l-5,0" style="fill:#6a462f;fill-rule:nonzero;"/><rect x="3.399" y="13.125" width="29.513" height="1.57" style="fill:#ea5a47;stroke:#ea5a47;stroke-width:1.5px;"/><rect x="27.932" y="13.125" width="4.996" height="1.595" style="fill:#d22f27;stroke:#d22f27;stroke-width:1.5px;"/><path d="M3.069,17.543l30.435,-0.288c1.659,-0.363 1.889,-0.765 2.049,-1.7c-1.396,0.95 -2.476,0.959 -3.436,1.079c-1.74,-0.009 -3.347,0.018 -4.45,-1.388l-4.498,-0.335l-3.253,1.436l-3.254,-0.048l-3.589,-1.244l-3.828,-0.192c-0.916,1.106 -2.641,1.427 -3.684,1.771c-1.601,-0.295 -3.314,0.606 -4.799,-1.079c0.367,1.154 0.374,1.48 2.31,1.988l-0.003,-0Z" style="fill:#b1cc33;fill-rule:nonzero;stroke:#b1cc33;stroke-width:1.5px;stroke-linecap:butt;"/><path d="M27.917,18.105l5.578,-0.85c1.659,-0.364 1.889,-0.766 2.049,-1.701c-1.396,0.95 -2.476,0.959 -3.436,1.079c-1.74,-0.009 -1.566,-0.015 -3.06,-0.764l-1.131,-0.654l-0,2.89Z" style="fill:#5c9e31;fill-rule:nonzero;stroke:#5c9e31;stroke-width:1.5px;stroke-linecap:butt;"/><rect x="27.932" y="13.125" width="3.139" height="1.595" style="fill:#d22f27;stroke:#d22f27;stroke-width:1.5px;stroke-linejoin:miter;"/><path d="M33.152,26.7l-30,-0c-0.828,-0 -1.5,-0.672 -1.5,-1.5l-0,-5.063c-0,-0.828 0.671,-1.5 1.5,-1.5l30,0c0.828,0 1.5,0.672 1.5,1.5l-0,5.063c-0,0.828 -0.672,1.5 -1.5,1.5Z" style="fill:none;fill-rule:nonzero;stroke:#000;stroke-width:1.5px;stroke-miterlimit:10;"/><path d="M33.902,26.828l-31.5,-0c-0.828,-0 -1.5,0.525 -1.5,1.174l-0,3.524c-0,0.649 0.671,1.175 1.5,1.175l31.5,-0c0.828,-0 1.5,-0.526 1.5,-1.175l-0,-3.524c-0,-0.649 -0.672,-1.174 -1.5,-1.174Z" style="fill:none;fill-rule:nonzero;stroke:#000;stroke-width:1.5px;stroke-miterlimit:10;"/><path d="M35.402,10.673c-0,0.543 -0.672,0.984 -1.5,0.984l-31.5,-0c-0.828,-0 -1.5,-0.441 -1.5,-0.985c1.113,-5.598 8.407,-9.922 17.25,-9.922c8.842,0 16.14,4.324 17.25,9.923Z" style="fill:none;fill-rule:nonzero;stroke:#000;stroke-width:1.5px;stroke-miterlimit:10;"/><path d="M23.582,18.923l-10.86,-0.001l5.431,5.374l5.429,-5.374Z" style="fill:none;fill-rule:nonzero;stroke:#000;stroke-width:1.5px;stroke-miterlimit:10;"/><path d="M35.544,15.3c-0.571,0.297 -1.018,0.615 -1.865,0.752c-1.026,0.269 -2.384,0.164 -3.452,-0c-1.446,-0.234 -1.726,-0.995 -3.451,-1.281c-1.068,-0.165 -2.384,-0.165 -3.452,-0c-1.724,0.286 -2.005,1.047 -3.451,1.281c-1.068,0.164 -2.384,0.164 -3.452,-0c-1.446,-0.234 -1.726,-0.995 -3.451,-1.281c-1.068,-0.165 -2.384,-0.165 -3.452,-0c-1.724,0.286 -2.005,1.047 -3.451,1.281c-1.068,0.164 -2.384,0.164 -3.452,-0c-0.847,-0.137 -1.294,-0.455 -1.865,-0.752" style="fill:none;fill-rule:nonzero;stroke:#000;stroke-width:1.5px;stroke-miterlimit:10;"/></svg><?xml version="1.0" standalone="no"?>
<!DOCTYPE svg PUBLIC "-//W3C//DTD SVG 20010904//EN"
 "http://www.w3.org/TR/2001/REC-SVG-20010904/DTD/svg10.dtd">
<svg version="1.0" xmlns="http://www.w3.org/2000/svg"
 width="748.000000pt" height="706.000000pt" viewBox="0 0 748.000000 706.000000"
 preserveAspectRatio="xMidYMid meet">

<g transform="translate(0.000000,706.000000) scale(0.100000,-0.100000)"
fill="#000000" stroke="none">
<path d="M878 5844 c-5 -4 -8 -18 -8 -31 0 -12 -4 -23 -10 -23 -5 0 -14 -9
-20 -20 -10 -19 -9 -21 16 -18 15 2 29 -3 31 -9 3 -7 -1 -13 -7 -13 -7 0 -20
-10 -30 -22 -15 -19 -21 -21 -31 -10 -17 16 -29 15 -29 -2 0 -19 -20 -26 -42
-15 -10 6 -19 5 -23 -1 -10 -16 -33 -12 -56 11 -18 18 -23 19 -30 8 -28 -49
-28 -49 -139 -38 -71 6 -109 14 -116 24 -6 8 -21 15 -33 15 -13 0 -31 10 -41
22 -15 19 -20 20 -34 9 -9 -8 -45 -14 -86 -16 -63 -2 -73 -5 -114 -38 -24 -21
-51 -37 -60 -37 -14 0 -16 -28 -16 -241 l0 -242 47 7 c77 12 293 9 340 -4 36
-11 46 -10 67 4 14 9 31 16 38 16 7 0 21 11 33 24 20 24 21 24 80 12 33 -8 77
-18 99 -24 30 -9 52 -8 99 5 48 12 65 13 80 3 15 -9 22 -8 36 4 16 15 19 14
36 -4 10 -11 24 -20 30 -20 15 0 28 -28 19 -42 -3 -5 0 -22 6 -39 15 -35 49
-46 94 -31 78 27 107 39 127 58 16 15 35 19 85 18 63 0 63 0 70 30 9 41 25 65
39 59 7 -2 15 6 18 18 5 17 10 20 29 14 13 -4 37 -8 54 -9 18 0 42 -10 54 -21
17 -16 24 -17 38 -7 9 7 24 15 32 18 8 3 24 10 35 14 33 14 68 23 105 26 19 1
87 7 150 13 63 5 201 12 305 15 105 3 222 10 260 16 39 5 115 10 170 11 55 0
126 4 158 8 57 7 59 6 73 -21 18 -35 48 -43 154 -42 296 5 309 4 347 -22 41
-28 89 -26 134 6 36 25 124 50 178 50 41 0 50 4 83 41 36 40 40 41 85 36 26
-3 52 -12 57 -20 27 -36 86 -30 86 8 0 26 -23 25 295 22 237 -1 344 4 379 18
l34 14 11 -59 c9 -46 18 -64 39 -78 51 -35 60 -37 257 -44 63 -2 140 15 164
36 10 9 22 16 28 16 6 0 21 -33 34 -72 14 -44 32 -80 46 -91 13 -11 23 -30 23
-43 0 -37 27 -71 70 -88 37 -15 105 -16 128 -2 6 3 22 2 36 -4 19 -7 33 -5 54
7 27 16 30 15 58 -4 26 -18 35 -20 84 -11 30 6 68 17 84 25 15 9 58 17 95 19
112 6 141 15 212 72 37 29 70 60 73 68 5 14 17 16 67 11 33 -3 65 -10 72 -15
7 -6 48 -14 92 -17 44 -4 89 -11 101 -15 12 -5 39 -6 60 -3 22 3 64 0 94 -7
105 -22 156 -30 275 -45 66 -9 149 -24 185 -34 80 -23 228 -51 269 -51 l31 0
0 295 0 296 -112 -5 c-62 -3 -140 -8 -173 -11 -105 -9 -425 -26 -575 -30 -80
-2 -175 -7 -212 -11 l-68 -6 0 30 c0 18 -6 32 -16 36 -10 4 -13 13 -9 25 5 16
-2 24 -36 40 -31 15 -46 18 -55 10 -7 -6 -21 -9 -31 -6 -14 4 -13 5 5 6 12 0
22 7 22 15 0 22 19 29 36 15 14 -11 15 -10 12 11 -4 29 -56 47 -87 30 -13 -7
-22 -7 -26 0 -3 5 -19 10 -36 10 -19 0 -29 5 -29 15 0 18 -7 18 -49 4 -28 -10
-34 -9 -46 7 -7 11 -27 20 -44 20 -66 3 -71 4 -71 20 0 12 -6 15 -22 10 -13
-3 -31 -6 -40 -6 -10 0 -18 -4 -18 -10 0 -5 7 -10 15 -10 8 0 15 -4 15 -9 0
-14 -18 -23 -24 -12 -3 5 -14 7 -24 5 -11 -4 -23 5 -35 25 -21 36 -35 38 -71
10 -22 -17 -29 -19 -42 -8 -46 38 -254 -25 -214 -65 14 -14 12 -26 -2 -26 -21
-1 -90 -67 -79 -75 17 -10 14 -18 -19 -53 -16 -18 -30 -39 -30 -46 0 -8 -9
-16 -21 -19 -16 -4 -23 1 -34 25 -12 31 -14 31 -91 35 -145 8 -257 3 -294 -14
-34 -15 -80 -58 -80 -74 0 -4 -7 -15 -16 -23 -13 -14 -52 -16 -272 -16 -141 0
-275 5 -298 10 -23 5 -61 6 -85 2 -41 -8 -46 -6 -71 22 l-27 31 -40 -22 c-25
-15 -57 -23 -86 -23 -38 0 -51 5 -75 30 -17 17 -30 35 -30 39 0 5 -24 9 -52 9
-63 -1 -140 19 -188 50 -46 29 -117 30 -153 2 -34 -27 -208 -40 -256 -20 -22
9 -56 10 -116 5 l-86 -7 -25 -39 c-25 -41 -48 -48 -85 -28 -15 7 -24 7 -34 -1
-18 -15 -184 -10 -205 6 -21 16 -78 34 -109 34 -15 0 -37 -7 -50 -17 -21 -14
-55 -16 -266 -15 -189 1 -252 5 -286 17 -24 8 -52 15 -61 15 -9 0 -20 9 -23
20 -3 11 -11 20 -17 20 -5 0 -12 -9 -15 -20 -8 -30 -33 -24 -44 10 -7 19 -18
30 -30 30 -11 0 -46 11 -78 24 l-59 24 -25 -26 c-22 -22 -28 -23 -42 -12 -13
11 -20 11 -40 0 -22 -12 -27 -11 -45 5 -11 10 -23 16 -26 12 -8 -8 -64 43 -64
59 0 20 -42 41 -99 47 -29 4 -65 14 -80 24 -60 41 -213 78 -233 57z m72 -80
c0 -16 -16 -19 -25 -4 -8 13 4 32 16 25 5 -4 9 -13 9 -21z m4535 -4 c3 -5 1
-10 -4 -10 -6 0 -11 5 -11 10 0 6 2 10 4 10 3 0 8 -4 11 -10z m-58 -71 c-30
-23 -37 -24 -37 -5 0 15 11 21 42 23 17 2 16 -1 -5 -18z m150 -90 c21 -35 70
-61 110 -59 42 3 53 1 53 -10 0 -5 -24 -10 -52 -10 -29 0 -72 -5 -96 -10 -54
-13 -68 -6 -48 26 9 13 16 31 16 40 0 13 -3 14 -15 4 -13 -11 -15 -8 -15 19 0
41 23 41 47 0z m223 -59 c0 -5 -7 -10 -16 -10 -8 0 -12 5 -9 10 3 6 10 10 16
10 5 0 9 -4 9 -10z m-283 -36 c-9 -9 -72 -9 -77 1 -3 5 13 14 35 21 33 9 41 9
43 -3 2 -8 2 -17 -1 -19z m-109 -1 c2 -9 -11 -13 -47 -13 -48 0 -61 7 -44 24
12 11 86 2 91 -11z m-373 -89 c105 -6 116 -10 89 -33 -19 -15 -32 -16 -100 -9
-44 5 -92 10 -109 11 -46 4 -115 29 -109 39 4 6 37 7 78 4 39 -4 107 -9 151
-12z m425 -34 c141 -14 184 -20 194 -30 10 -10 -14 -16 -86 -24 -26 -3 -50 -1
-53 5 -4 5 -13 5 -23 0 -9 -4 -23 -6 -29 -4 -7 3 -13 -1 -13 -8 0 -8 -5 -7
-17 4 -25 21 -108 27 -108 7 0 -10 8 -14 23 -12 31 4 28 -5 -8 -23 -39 -20
-53 -11 -45 26 l7 29 -49 -2 c-32 -2 -56 3 -72 14 l-24 17 28 11 c16 6 34 9
41 6 8 -3 15 -2 18 3 3 4 31 3 63 -1 32 -5 101 -12 153 -18z m-2040 -16 c0
-17 -22 -14 -28 4 -2 7 3 12 12 12 9 0 16 -7 16 -16z m2367 -8 c-3 -8 -1 -17
6 -20 20 -8 -56 -5 -83 4 -27 8 -17 15 30 23 47 8 52 7 47 -7z m201 -40 c-9
-10 -18 -11 -30 -5 -26 14 -22 19 12 19 26 0 29 -2 18 -14z m-434 -16 c48 -18
29 -68 -41 -107 -32 -18 -33 -17 -33 23 0 28 3 35 15 30 11 -4 15 2 15 23 0
24 7 41 16 41 1 0 14 -4 28 -10z m-64 -21 c0 -11 -4 -17 -10 -14 -5 3 -10 13
-10 21 0 8 5 14 10 14 6 0 10 -9 10 -21z"/>
<path d="M1270 5770 c0 -5 5 -10 10 -10 6 0 10 5 10 10 0 6 -4 10 -10 10 -5 0
-10 -4 -10 -10z"/>
<path d="M1325 5739 c-10 -14 -1 -21 19 -13 9 3 13 10 10 15 -7 12 -21 11 -29
-2z"/>
<path d="M1370 5730 c0 -5 5 -10 10 -10 6 0 10 5 10 10 0 6 -4 10 -10 10 -5 0
-10 -4 -10 -10z"/>
<path d="M4043 5227 c-13 -5 -23 -14 -23 -19 0 -4 -7 -8 -15 -8 -8 0 -15 5
-15 10 0 6 -7 10 -15 10 -8 0 -15 -8 -15 -19 0 -10 -10 -25 -22 -34 -23 -15
-23 -15 -3 -36 24 -28 13 -50 -34 -66 -18 -6 -37 -18 -42 -28 -6 -9 -16 -17
-23 -17 -14 0 -32 -62 -28 -90 3 -17 7 -42 17 -122 9 -66 1 -82 -46 -92 -17
-3 -47 -19 -67 -35 -21 -15 -47 -31 -59 -35 -13 -4 -23 -12 -23 -17 0 -5 -10
-9 -22 -9 -13 -1 -54 -19 -93 -41 -38 -22 -86 -47 -105 -57 -43 -21 -60 -36
-60 -55 0 -10 -8 -13 -25 -9 -26 5 -32 16 -15 27 11 7 14 59 3 53 -36 -17 -74
-46 -79 -60 -3 -9 -17 -18 -32 -20 -22 -2 -27 -8 -26 -30 1 -24 -4 -29 -37
-38 -35 -10 -75 -50 -49 -50 26 0 6 -32 -30 -46 -22 -9 -40 -22 -40 -30 0 -8
-9 -14 -20 -14 -12 0 -24 -10 -29 -23 -11 -29 -57 -50 -102 -45 -36 3 -50 25
-22 34 43 15 103 46 103 55 0 4 -10 14 -22 20 l-22 12 22 17 c25 21 29 32 7
24 -9 -4 -19 3 -26 20 -13 28 -49 36 -49 11 0 -10 -10 -15 -30 -15 -17 0 -33
-6 -35 -12 -3 -7 -22 -14 -43 -15 -27 -2 -33 0 -22 7 8 5 23 10 33 10 9 0 17
5 17 10 0 6 6 10 14 10 8 0 18 5 21 10 7 12 -79 9 -91 -3 -4 -4 -23 -4 -41 -1
-19 4 -33 2 -33 -4 0 -5 -9 -12 -20 -15 -11 -3 -23 -13 -27 -23 -3 -10 -14
-25 -22 -34 -9 -9 -22 -26 -30 -38 -26 -38 -91 -53 -91 -21 0 6 15 25 33 42
19 18 36 40 40 49 5 16 1 15 -46 -4 -29 -11 -63 -23 -77 -25 -47 -8 -100 -26
-100 -35 0 -5 -9 -6 -21 -3 -12 4 -27 1 -37 -7 -9 -8 -42 -20 -72 -27 -60 -14
-86 -23 -142 -52 -20 -10 -45 -19 -55 -19 -28 -1 -115 -33 -237 -89 -38 -17
-77 -31 -87 -31 -10 0 -20 -4 -23 -9 -6 -10 -56 -21 -56 -13 0 3 11 20 25 38
14 19 25 36 24 40 0 4 5 10 13 15 8 5 15 2 20 -9 5 -14 7 -13 7 6 1 19 -4 22
-35 22 -32 0 -35 -2 -23 -16 10 -13 10 -17 -2 -25 -18 -11 -6 -10 -129 -10
-79 -1 -115 -5 -145 -19 -22 -10 -48 -20 -58 -24 -10 -3 -16 -10 -13 -15 3 -5
-3 -7 -14 -4 -11 3 -27 0 -34 -6 -8 -7 -38 -11 -68 -10 -30 1 -68 -5 -88 -13
-49 -22 -176 -33 -186 -17 -5 9 -9 8 -14 -6 -7 -20 -45 -31 -55 -15 -9 15
-102 13 -107 -2 -3 -9 -26 -12 -77 -9 -49 2 -77 -1 -87 -10 -11 -9 -40 -13
-85 -11 -38 1 -69 -2 -69 -7 0 -5 -16 -19 -37 -31 -29 -17 -38 -18 -44 -8 -7
10 -9 10 -9 1 0 -13 -42 -18 -53 -7 -3 4 -29 7 -57 8 -55 1 -54 2 -63 -69 -2
-17 -5 -8 -6 22 -1 38 -5 51 -14 47 -19 -7 -22 -154 -19 -764 2 -338 7 -537
13 -541 6 -3 22 -4 37 -1 15 3 21 7 15 9 -9 3 -13 29 -12 86 2 76 2 79 9 32 4
-27 5 -62 2 -77 -4 -23 -1 -28 14 -28 11 0 30 9 44 20 14 11 31 20 38 20 7 0
28 11 46 25 18 14 36 25 41 25 4 0 45 19 92 42 54 27 83 47 82 57 -3 33 2 50
18 67 16 15 17 15 23 -2 6 -17 8 -17 14 4 6 19 14 22 38 20 18 -2 33 2 35 10
3 7 -1 10 -11 6 -24 -9 -19 11 7 25 24 13 68 11 78 -3 4 -4 17 12 29 37 18 36
20 48 11 66 -10 18 -9 21 9 21 17 0 20 -5 18 -27 -3 -27 -2 -28 49 -28 28 0
49 3 47 6 -5 9 22 19 52 19 14 0 24 6 24 14 0 8 10 18 23 21 56 17 77 30 71
47 -6 19 22 38 56 38 11 0 32 11 46 25 14 14 29 25 34 25 6 0 10 6 10 13 0 17
56 37 102 37 27 0 38 -6 48 -25 11 -20 21 -25 52 -25 21 0 38 5 38 10 0 6 9
10 21 10 29 0 59 18 59 36 0 9 -11 25 -25 36 -36 28 -31 37 18 32 61 -6 93 3
106 32 7 15 22 27 42 31 17 3 36 14 42 24 11 18 57 26 70 13 8 -9 -15 -44 -30
-44 -23 0 -72 -56 -62 -71 7 -11 9 -11 9 2 0 11 12 19 34 23 19 4 45 16 59 27
14 11 42 26 61 34 41 17 45 29 16 45 -14 7 -20 7 -20 0 0 -5 -13 -10 -30 -10
-23 0 -30 4 -30 20 0 23 53 80 75 80 9 0 18 7 21 15 4 8 12 15 20 15 8 0 14
-7 14 -15 0 -19 11 -19 36 0 18 14 18 14 -3 8 -16 -4 -23 -1 -23 10 0 18 -27
30 -43 20 -23 -15 -73 -29 -86 -25 -15 5 15 42 35 42 7 0 14 10 16 23 2 14 11
23 25 25 13 2 31 13 40 26 15 18 75 56 90 56 1 0 3 -9 3 -20 0 -15 7 -20 25
-20 26 0 50 32 41 56 -10 25 4 41 29 36 32 -6 117 15 145 36 12 9 38 33 59 52
50 47 199 120 243 120 19 0 42 6 51 13 23 16 16 59 -11 72 -15 7 -22 19 -22
38 0 35 39 53 82 38 18 -7 38 -7 53 -1 22 8 25 7 25 -13 0 -12 -7 -32 -14 -43
-8 -12 -15 -30 -14 -40 1 -33 -21 -74 -40 -74 -10 0 -26 -13 -35 -30 -12 -20
-26 -30 -42 -30 -13 0 -27 -5 -30 -11 -4 -5 -21 -9 -38 -7 -29 3 -32 0 -35
-29 -2 -23 -10 -34 -25 -39 -12 -4 -29 -15 -38 -25 -9 -11 -20 -19 -24 -19
-10 0 -68 -50 -58 -50 4 -1 -7 -7 -24 -15 -39 -17 -42 -32 -8 -41 26 -6 28
-11 25 -56 -1 -27 1 -28 43 -28 41 0 45 2 41 23 -2 12 -2 16 2 10 3 -8 24 -13
49 -13 43 0 68 -14 43 -23 -7 -2 -11 -7 -8 -10 3 -3 31 10 63 29 32 19 65 34
73 34 11 0 12 4 4 19 -13 25 -13 41 0 41 6 0 10 -9 10 -21 0 -14 5 -19 14 -16
8 3 32 11 53 16 50 14 106 70 102 103 -2 13 4 36 13 50 12 19 14 28 5 37 -8 8
-8 11 1 11 20 0 26 -48 8 -75 -18 -27 -20 -35 -8 -35 4 0 16 15 28 33 15 24
19 40 13 65 -3 17 -3 32 2 32 5 0 9 -8 9 -17 0 -13 3 -14 12 -5 20 20 32 13
13 -8 -28 -31 -4 -23 33 10 17 16 32 39 32 50 0 11 5 20 10 20 6 0 10 -5 10
-12 0 -6 9 -3 20 7 16 15 18 21 8 33 -11 13 -10 14 7 9 18 -6 75 31 75 48 0 4
15 18 33 33 17 15 70 64 117 109 47 44 103 97 125 116 22 20 90 83 150 141 61
58 111 102 113 97 2 -7 -85 -96 -288 -291 -52 -50 -145 -139 -205 -198 -61
-59 -119 -114 -130 -123 -11 -9 -27 -25 -36 -35 -9 -10 -87 -89 -175 -175 -87
-85 -169 -166 -180 -180 -31 -35 -110 -109 -118 -109 -17 0 -1 25 44 72 52 54
65 77 30 56 -11 -7 -20 -18 -20 -24 0 -7 -8 -10 -19 -7 -11 3 -24 -3 -32 -15
-8 -10 -26 -22 -41 -25 -15 -4 -33 -13 -40 -20 -7 -7 -31 -17 -52 -22 -49 -12
-60 -35 -17 -35 16 0 33 -5 36 -10 3 -6 41 -10 83 -9 42 1 97 -4 121 -11 25
-6 69 -9 103 -6 44 5 65 2 81 -9 14 -10 46 -15 92 -16 38 0 95 -5 125 -11 30
-5 75 -12 100 -14 25 -2 90 -10 145 -18 55 -8 123 -15 150 -17 61 -3 98 -18
91 -36 -3 -8 2 -13 15 -13 11 0 18 4 15 9 -10 16 69 21 179 11 61 -6 164 -15
230 -20 126 -11 250 -25 350 -41 56 -8 242 -14 310 -9 38 3 -131 27 -250 35
-49 4 -117 11 -150 15 -33 5 -116 12 -185 15 -213 11 -224 13 -195 45 17 19
17 61 0 67 -11 3 -39 -52 -38 -74 1 -15 -15 -16 -172 -3 -258 20 -463 48 -489
66 -11 8 -31 14 -43 14 -13 0 -46 11 -74 24 -28 14 -57 22 -65 19 -10 -3 -14
2 -14 19 0 43 90 148 126 148 19 0 18 16 -1 24 -8 3 -15 14 -15 25 0 50 46 99
103 110 23 5 33 14 39 36 4 17 21 46 37 65 l29 35 88 -1 c51 0 99 -6 112 -13
20 -11 27 -10 42 4 17 15 25 15 101 1 55 -10 90 -23 105 -37 l23 -22 10 26
c14 37 48 42 128 18 74 -22 123 -53 123 -77 0 -20 13 -18 33 6 29 34 96 23
187 -30 55 -32 82 -79 70 -121 -10 -33 3 -47 26 -28 10 8 38 10 96 6 77 -6 81
-6 100 18 18 24 25 25 119 25 123 0 160 -13 188 -68 18 -35 20 -59 20 -213 1
-95 5 -177 10 -182 5 -5 24 -13 43 -18 30 -8 29 -8 -12 -5 -25 2 -53 7 -62 11
-10 4 -18 3 -18 -2 0 -5 13 -14 30 -20 18 -7 34 -23 41 -40 25 -64 99 -520 99
-610 0 -55 -3 -64 -26 -82 -15 -12 -37 -21 -50 -21 -34 0 -30 -25 6 -47 33
-19 39 -33 13 -33 -9 0 -13 -3 -9 -8 4 -4 11 -7 15 -7 12 0 57 -57 63 -80 3
-11 9 -28 13 -37 4 -10 3 -18 -3 -18 -16 0 -69 54 -75 75 -4 18 -5 17 -6 -2
-1 -24 -17 -31 -23 -11 -5 15 -28 1 -28 -17 0 -15 38 -40 47 -31 7 7 67 -28
102 -58 l24 -21 -7 90 c-15 218 -18 315 -11 370 l8 60 9 -45 c4 -25 12 -101
18 -170 5 -69 15 -183 21 -255 16 -185 16 -191 33 -393 9 -101 18 -188 21
-193 6 -8 10 -55 34 -384 5 -66 12 -145 15 -175 3 -30 13 -129 21 -220 19
-208 43 -448 55 -567 15 -141 17 -133 -35 -133 -25 0 -44 3 -43 8 3 15 -15 82
-23 88 -5 3 -9 25 -9 49 0 24 -5 56 -12 72 -30 73 -47 253 -63 693 -2 64 -9
194 -15 290 -7 107 -9 258 -5 387 6 155 4 213 -4 213 -6 0 -11 -8 -11 -17 -2
-53 -39 -293 -48 -309 -9 -16 -11 -9 -12 35 0 66 -6 63 -20 -9 -12 -62 -15
-67 -34 -51 -10 8 -16 9 -21 1 -3 -5 -15 -10 -26 -10 -11 0 -17 -5 -14 -10 4
-6 10 -8 15 -5 14 8 60 -25 60 -43 0 -12 -9 -14 -50 -9 -27 3 -51 3 -54 -1 -6
-10 25 -47 52 -61 l23 -12 -26 -30 c-25 -30 -25 -31 -8 -61 10 -16 34 -38 54
-49 35 -20 68 -59 50 -59 -5 0 -11 5 -13 11 -3 8 -15 8 -45 0 -32 -9 -42 -17
-46 -38 -4 -20 1 -31 18 -45 12 -10 26 -30 29 -45 4 -16 16 -46 27 -69 10 -22
25 -88 33 -145 12 -95 12 -107 -4 -144 -9 -22 -20 -48 -23 -57 -4 -10 -11 -18
-17 -18 -5 0 -10 8 -11 18 0 12 -3 10 -11 -8 -7 -14 -22 -50 -36 -80 -19 -43
-23 -65 -19 -103 4 -26 4 -47 2 -47 -2 0 -21 11 -41 25 -20 14 -41 25 -45 25
-15 0 -10 -26 10 -51 26 -34 36 -67 36 -121 0 -39 -3 -48 -17 -48 -10 0 -18
-4 -18 -10 0 -5 7 -10 15 -10 18 0 62 -64 75 -108 l9 -32 -785 0 -784 0 1 33
c2 57 10 87 24 87 14 0 25 22 25 51 0 16 -5 19 -20 14 -24 -7 -25 2 -5 29 13
17 15 18 15 3 0 -9 5 -17 11 -17 8 0 10 22 6 67 -2 37 -1 74 3 83 4 8 13 26
19 40 28 60 35 63 118 62 115 -3 177 -8 199 -19 10 -5 33 -16 49 -24 17 -8 34
-25 40 -37 10 -23 10 -23 155 -41 99 -13 99 -13 125 78 24 82 45 96 141 96 40
0 75 2 77 5 2 3 8 26 11 52 6 39 4 48 -8 48 -8 0 -16 -5 -18 -11 -4 -12 -133
-22 -163 -12 -20 6 -20 6 0 13 14 5 4 10 -37 15 -32 4 -58 12 -58 17 0 6 6 8
13 5 8 -3 20 -1 28 4 12 8 12 10 0 18 -8 5 -19 7 -25 5 -7 -3 -22 5 -34 16
-36 34 -122 56 -122 31 0 -16 -74 1 -88 21 -7 10 -20 18 -28 18 -8 0 -14 5
-14 11 0 6 -9 9 -20 6 -15 -4 -22 3 -31 30 -22 68 -14 157 36 411 25 121 34
225 13 137 -29 -125 -49 -221 -64 -310 -8 -55 -18 -103 -20 -107 -2 -3 -11
-55 -19 -115 -18 -125 -23 -145 -36 -138 -5 4 -9 -2 -9 -13 0 -10 -11 -24 -25
-30 -14 -7 -30 -23 -35 -37 -5 -14 -17 -25 -25 -25 -20 0 -66 30 -61 39 3 4
-16 18 -42 31 -26 13 -60 35 -76 49 l-28 26 5 -117 c4 -65 2 -120 -3 -123 -5
-3 -12 -30 -16 -61 -6 -54 -7 -55 -33 -50 -24 6 -25 5 -8 -8 12 -9 14 -16 8
-21 -6 -3 -11 -15 -11 -26 0 -10 -4 -19 -8 -19 -5 0 -7 -13 -4 -28 3 -22 -2
-32 -22 -46 -15 -10 -26 -26 -26 -39 0 -13 -7 -32 -15 -43 -8 -10 -15 -29 -15
-41 0 -13 -5 -23 -10 -23 -17 0 -62 -49 -55 -60 4 -7 -144 -10 -429 -10 -341
0 -436 3 -438 13 -1 6 -2 26 -2 42 -1 29 -3 30 -50 33 -33 2 -52 -1 -57 -10
-7 -10 -13 -8 -31 10 -20 19 -21 24 -8 33 13 8 13 11 -3 20 -21 12 -10 40 34
81 25 23 29 34 29 82 0 31 4 56 8 56 10 0 2 73 -9 80 -14 9 10 80 27 80 12 0
14 9 11 45 -3 28 0 50 9 62 7 10 14 26 14 36 0 9 5 17 10 17 6 0 10 6 10 14 0
7 7 19 15 26 9 7 23 29 32 49 9 20 26 49 37 64 18 24 18 29 6 37 -20 12 -58 2
-82 -22 -10 -10 -23 -16 -28 -13 -6 4 -10 -4 -10 -17 0 -27 -9 -43 -30 -51
-12 -4 -11 -6 3 -6 9 -1 17 -5 17 -11 0 -5 -7 -7 -15 -4 -8 4 -15 1 -15 -5 0
-6 -7 -11 -15 -11 -8 0 -15 -4 -15 -9 0 -5 -19 -7 -41 -4 -40 6 -41 5 -29 -17
9 -16 15 -19 23 -11 18 18 27 12 27 -19 0 -31 -16 -41 -26 -15 -9 23 -63 -23
-64 -55 -1 -40 -14 -54 -37 -41 -23 12 -33 6 -33 -21 0 -10 -4 -18 -10 -18 -5
0 -10 7 -10 16 0 23 -24 11 -28 -13 -3 -23 -39 -41 -87 -43 -136 -7 -185 -3
-185 15 0 7 7 18 16 23 9 5 17 24 18 42 1 18 10 38 19 45 9 7 17 17 17 23 0 7
10 18 23 27 18 12 23 22 19 45 -2 17 -6 30 -9 30 -13 0 -63 -32 -63 -41 0 -5
-18 -28 -41 -50 -41 -40 -44 -59 -8 -59 20 0 24 -16 11 -37 -5 -8 -13 -9 -22
-3 -21 13 -70 12 -70 -1 0 -8 -15 -9 -48 -4 -26 3 -59 8 -74 9 -15 2 -34 8
-42 15 -10 9 -16 9 -21 1 -4 -7 -11 -8 -18 -2 -18 14 -104 29 -170 31 -33 0
-71 8 -90 18 -18 10 -45 19 -61 20 -16 2 -37 10 -46 18 -9 8 -20 15 -24 15
-20 0 -34 31 -38 85 -4 48 0 73 19 125 33 87 98 203 152 273 33 41 177 201
226 250 55 54 57 58 39 71 -22 17 -38 10 -30 -13 5 -12 2 -11 -11 4 -10 11
-34 21 -53 23 -19 2 -45 10 -57 18 -13 8 -23 12 -23 9 0 -3 -18 4 -39 15 -22
11 -54 21 -71 22 -40 3 -43 9 -25 49 19 45 40 75 102 145 28 33 106 124 172
204 67 80 141 157 164 173 39 27 47 28 134 26 51 -2 95 0 98 3 3 3 -8 11 -24
18 -29 11 -30 15 -27 59 3 45 11 75 24 97 31 51 76 110 128 169 33 39 71 82
83 96 13 15 41 35 64 45 23 10 54 28 69 40 24 19 25 23 11 37 -13 13 -13 18
-2 34 32 46 286 306 311 319 26 13 62 13 134 -2 16 -3 28 6 50 39 28 41 41 82
22 71 -14 -9 -39 17 -34 35 5 15 -30 69 -38 60 -2 -2 -8 -13 -14 -24 -11 -20
-11 -20 -12 1 0 26 -19 44 -45 44 -22 0 -53 26 -54 45 0 13 -31 20 -31 7 0 -6
6 -13 13 -16 6 -3 3 -5 -8 -3 -12 1 -21 11 -23 24 -3 18 7 27 50 48 84 41 117
65 118 88 0 13 -28 7 -34 -8 -3 -8 -15 -15 -27 -15 -18 0 -19 2 -9 15 7 8 18
15 26 15 7 0 16 5 19 10 4 6 -10 10 -33 10 l-40 0 4 -42 c2 -24 1 -35 -2 -25
-7 22 -17 22 -40 -4 -16 -17 -16 -22 -4 -30 11 -8 8 -9 -12 -5 -15 3 -30 2
-33 -4 -3 -5 -15 -10 -26 -10 -11 0 -17 5 -14 10 3 6 15 10 26 10 13 0 19 7
19 21 0 19 -4 21 -37 14 -21 -4 -40 -9 -42 -11 -2 -2 0 -18 5 -36 8 -26 15
-32 32 -30 12 2 22 -2 22 -7 0 -6 -13 -11 -29 -11 -21 0 -32 -6 -36 -19 -3
-11 -15 -23 -26 -26 -10 -4 -19 -14 -19 -24 0 -17 -92 -111 -109 -111 -5 0
-11 -10 -13 -22 -2 -12 -9 -24 -17 -26 -10 -3 -12 0 -8 12 4 10 1 16 -8 16 -8
0 -15 -6 -15 -13 0 -16 -27 -33 -67 -41 -17 -4 -37 -13 -42 -20 -6 -8 -46 -28
-89 -47 -42 -18 -93 -43 -112 -55 -19 -12 -52 -28 -72 -35 -21 -7 -38 -17 -38
-21 0 -4 -5 -8 -11 -8 -6 0 -28 -13 -49 -30 -21 -16 -40 -30 -43 -30 -3 0 -33
-18 -66 -40 -33 -22 -63 -40 -67 -40 -4 0 -15 -6 -23 -14 -9 -7 -45 -24 -81
-36 -36 -12 -69 -26 -74 -31 -6 -5 -15 -9 -22 -9 -6 0 -32 -9 -58 -20 -25 -12
-49 -21 -53 -21 -5 0 -16 -7 -25 -16 -19 -17 -85 -55 -145 -84 -23 -11 -45
-24 -48 -29 -7 -12 -71 -40 -90 -40 -21 0 -5 40 24 58 14 9 32 23 40 30 7 7
26 16 42 19 15 3 30 11 33 19 3 8 10 14 16 14 5 0 19 9 30 20 12 12 24 18 29
16 5 -3 16 3 26 14 10 11 26 20 35 20 10 0 23 7 31 16 20 24 91 57 121 56 20
0 28 4 28 16 0 12 3 13 12 4 19 -19 24 -14 26 27 3 40 -11 63 -22 36 -3 -9
-12 -12 -22 -8 -13 5 -16 3 -11 -10 9 -23 -3 -27 -85 -29 -91 -1 -111 -8 -68
-22 45 -15 42 -30 -7 -34 -23 -2 -47 -9 -53 -17 -8 -9 -18 -11 -28 -6 -22 11
-107 31 -132 31 -11 0 -20 -4 -20 -10 0 -5 11 -10 24 -10 13 0 26 -7 30 -15 7
-20 -29 -20 -68 0 -35 18 -46 19 -46 2 0 -8 -22 -19 -50 -27 -31 -9 -52 -20
-56 -32 -3 -10 -14 -18 -25 -18 -10 0 -19 -3 -19 -6 0 -11 29 -34 44 -34 9 0
16 -7 16 -15 0 -17 -21 -20 -35 -6 -6 5 -24 12 -42 16 -27 5 -36 2 -59 -24
-20 -23 -36 -31 -62 -31 -25 0 -40 -7 -54 -25 -11 -14 -24 -25 -29 -25 -22 0
-97 -40 -103 -55 -3 -8 -12 -15 -21 -15 -8 0 -15 -6 -15 -12 0 -10 -2 -10 -9
0 -6 10 -10 10 -20 -2 -9 -11 -14 -135 -17 -483 -3 -262 -10 -482 -16 -500 -5
-18 -20 -41 -34 -52 l-24 -19 0 -696 0 -696 3740 0 3740 0 0 30 c0 28 -3 30
-35 30 l-35 0 0 809 c0 537 4 818 10 838 6 17 22 36 35 43 l25 13 0 1209 0
1208 -80 0 -80 0 0 -37 c0 -31 -5 -40 -26 -50 -16 -8 -32 -9 -42 -3 -35 18
-147 48 -152 40 -6 -10 -77 -15 -110 -7 -14 3 -67 9 -117 12 -81 6 -93 4 -93
-9 0 -12 -10 -16 -40 -16 -22 0 -40 5 -40 11 0 5 -16 -2 -36 -17 -34 -26 -35
-29 -17 -42 17 -13 16 -13 -7 -10 -21 2 -25 8 -24 35 2 39 -18 49 -74 34 -31
-9 -48 -7 -89 8 -41 15 -93 24 -195 35 -3 1 -10 4 -14 9 -14 14 -146 7 -186
-10 -44 -19 -49 -33 -13 -33 17 0 25 -6 25 -17 0 -9 5 -31 12 -50 6 -18 8 -36
4 -40 -5 -5 -11 -2 -13 5 -3 6 -11 12 -18 12 -7 0 -27 8 -44 18 -23 13 -31 24
-31 45 0 16 -5 38 -11 50 -9 16 -9 22 0 25 6 2 11 8 11 13 0 12 -57 11 -81 -1
-20 -11 -27 -40 -9 -40 5 0 9 -22 9 -50 -1 -27 -6 -50 -10 -50 -5 0 -9 4 -9
10 0 16 -43 34 -76 32 -29 -2 -33 1 -44 40 -10 33 -18 43 -36 44 -21 2 -87 42
-130 81 -11 10 -28 23 -38 28 -10 6 -31 33 -46 60 -15 27 -34 51 -41 53 -8 2
-21 6 -29 9 -8 4 -17 7 -20 7 -14 3 -47 33 -53 49 -3 9 -15 17 -25 17 -35 0
-80 21 -85 40 -3 11 -18 25 -34 31 -15 6 -35 15 -43 20 -8 5 -26 14 -39 19
-14 6 -31 20 -38 30 -8 11 -19 20 -25 20 -6 0 -19 6 -27 14 -9 8 -63 38 -119
66 -57 29 -105 58 -106 64 -18 69 -21 73 -117 125 -66 36 -70 53 -27 113 19
26 -5 47 -27 24 -20 -20 -34 -20 -41 -1 -4 8 -15 15 -26 15 -10 0 -17 -4 -13
-9 8 -15 -15 -25 -28 -12 -15 15 -27 14 -27 -3 0 -26 -20 -28 -29 -4 -8 20
-10 21 -16 5 -5 -13 -11 -15 -20 -7 -7 6 -20 8 -29 4 -25 -9 -20 21 7 39 l22
16 -23 0 c-13 1 -35 -10 -50 -24 -26 -24 -80 -36 -67 -15 4 6 10 8 14 5 5 -2
16 4 26 15 10 11 23 20 29 20 6 0 17 9 24 20 13 22 48 27 54 8 5 -14 38 -4 38
12 0 5 -19 10 -42 10 -40 0 -127 -40 -171 -79 -21 -17 -16 -21 -105 85 l-32
39 -25 -30 c-14 -16 -25 -36 -25 -42 0 -7 -3 -13 -7 -13 -5 0 -8 27 -8 60 -1
68 -10 82 -42 67z m-33 -73 c0 -2 -11 -4 -25 -4 -14 0 -25 4 -25 9 0 4 11 6
25 3 14 -2 25 -6 25 -8z m156 -50 c-3 -9 -6 -18 -6 -20 0 -2 -7 -4 -15 -4 -13
0 -14 4 -5 20 13 24 35 27 26 4z m44 -56 c0 -7 -4 -19 -9 -27 -11 -17 -23 1
-15 23 7 19 24 21 24 4z m250 -97 c0 -5 -7 -14 -15 -21 -13 -10 -15 -9 -15 9
0 12 6 21 15 21 8 0 15 -4 15 -9z m-75 -143 c19 -18 19 -20 3 -32 -22 -16 -23
-32 -3 -40 8 -3 15 -10 15 -16 0 -7 -30 -10 -87 -8 -80 3 -88 5 -88 23 0 13 8
21 23 23 21 3 31 17 46 64 7 23 62 14 91 -14z m560 -118 c3 -11 3 -25 -1 -32
-5 -7 -2 -9 8 -5 15 5 38 -9 38 -25 0 -4 -7 -8 -16 -8 -20 0 -84 59 -84 78 0
21 48 14 55 -8z m-115 -4 c0 -3 -4 -8 -10 -11 -5 -3 -10 -1 -10 4 0 6 5 11 10
11 6 0 10 -2 10 -4z m-1096 -232 c7 -19 118 -15 132 4 9 13 34 18 106 22 86 5
93 7 96 26 2 12 11 29 21 38 24 22 141 40 216 33 68 -6 95 -29 95 -79 0 -19 4
-28 13 -25 7 2 12 21 12 43 0 50 30 81 56 58 9 -8 24 -12 33 -8 9 3 62 1 117
-6 120 -15 139 -28 139 -92 0 -24 7 -63 16 -87 16 -48 12 -85 -13 -113 -8 -9
-17 -42 -19 -74 -2 -31 -12 -70 -21 -88 -8 -17 -19 -38 -23 -46 -6 -12 -34
-16 -146 -18 -76 -1 -186 1 -244 5 -99 8 -105 9 -108 31 -4 29 -20 28 -32 -3
-9 -23 -15 -25 -67 -25 -123 0 -729 20 -750 25 -28 7 -31 48 -5 71 38 34 98
77 121 85 17 7 22 15 18 30 -13 49 41 117 106 133 15 3 27 10 27 15 0 5 16 15
35 21 34 11 35 14 35 60 0 26 3 63 7 81 7 30 8 26 15 -36 5 -38 10 -75 12 -81z
m-1045 -135 c-9 -5 -15 -4 -18 2 -2 6 3 15 10 20 9 5 15 4 18 -2 2 -6 -3 -15
-10 -20z m61 -67 c0 -18 -36 -41 -75 -47 -22 -4 -51 -14 -63 -22 -14 -8 -34
-12 -47 -9 -14 4 -25 1 -28 -7 -2 -7 -8 -8 -13 -3 -5 5 -3 11 5 14 7 2 21 13
29 23 9 11 20 19 25 19 5 0 23 7 40 15 18 8 48 16 67 18 19 2 41 5 48 5 6 1
12 -2 12 -6z m45 -53 c-4 -13 -2 -19 9 -19 9 0 16 -7 16 -15 0 -8 -4 -15 -8
-15 -13 0 -44 59 -37 70 10 17 26 0 20 -21z m-35 -48 c0 -12 -20 -25 -27 -18
-7 7 6 27 18 27 5 0 9 -4 9 -9z m3364 -22 c-3 -5 -10 -7 -15 -3 -5 3 -7 10 -3
15 3 5 10 7 15 3 5 -3 7 -10 3 -15z m16 -71 c0 -7 -4 -19 -9 -26 -7 -11 -10
-10 -15 3 -10 26 -7 35 9 35 8 0 15 -6 15 -12z m-180 -8 c0 -5 -4 -10 -10 -10
-5 0 -10 5 -10 10 0 6 5 10 10 10 6 0 10 -4 10 -10z m-2904 -47 c-8 -8 -36 5
-36 17 0 7 6 7 21 0 11 -7 18 -14 15 -17z m-1547 -19 c-14 -17 -73 -44 -95
-44 -25 0 -15 21 16 31 17 6 30 15 30 19 0 9 40 18 53 12 4 -2 2 -10 -4 -18z
m1481 -44 c0 -5 -4 -10 -10 -10 -5 0 -10 5 -10 10 0 6 5 10 10 10 6 0 10 -4
10 -10z m-337 -7 c-7 -2 -19 -2 -25 0 -7 3 -2 5 12 5 14 0 19 -2 13 -5z m237
3 c0 -3 -4 -8 -10 -11 -5 -3 -10 -1 -10 4 0 6 5 11 10 11 6 0 10 -2 10 -4z
m33 -36 c-3 -11 -9 -20 -14 -20 -10 0 -12 24 -2 33 13 13 21 7 16 -13z m3075
-32 c13 -16 13 -18 0 -18 -18 0 -41 47 -31 63 5 8 9 5 11 -8 2 -11 11 -28 20
-37z m-3213 -40 c-9 -41 -12 -45 -27 -30 -9 9 -8 15 7 25 10 8 15 19 11 25 -4
7 -2 12 4 12 8 0 9 -11 5 -32z m-11 -64 c9 -22 8 -24 -9 -24 -8 0 -15 9 -15
20 0 24 15 27 24 4z m-50 -13 c3 -5 -3 -11 -15 -14 -16 -4 -18 -3 -8 9 13 16
16 17 23 5z m-178 -73 c-3 -24 -3 -37 0 -30 9 19 24 14 24 -8 0 -15 -7 -20
-24 -20 -14 0 -28 -4 -31 -10 -3 -5 -14 -10 -23 -10 -15 1 -15 2 1 14 14 11
17 22 12 49 -8 42 -1 57 26 57 19 0 20 -5 15 -42z m169 22 c3 -5 1 -10 -4 -10
-6 0 -11 5 -11 10 0 6 2 10 4 10 3 0 8 -4 11 -10z m2618 -38 c31 -42 31 -44
13 -58 -24 -17 -33 -11 -41 27 -4 19 -16 34 -31 39 -26 10 -31 25 -11 33 24
11 39 1 70 -41z m-3018 19 c3 -5 1 -12 -5 -16 -5 -3 -10 1 -10 9 0 18 6 21 15
7z m3048 -108 c2 -5 -1 -21 -8 -37 -10 -24 -13 -26 -17 -10 -3 11 -9 27 -13
37 -5 13 -2 17 13 17 12 0 23 -3 25 -7z m105 -96 c22 -23 20 -37 -3 -37 -10 0
-35 40 -35 55 0 12 18 3 38 -18z m62 -33 c0 -8 -4 -12 -10 -9 -5 3 -10 10 -10
16 0 5 5 9 10 9 6 0 10 -7 10 -16z m50 -53 c17 -32 13 -43 -10 -31 -11 6 -20
20 -20 30 0 25 16 26 30 1z m-616 -260 c3 -5 -6 -8 -19 -8 -14 0 -25 3 -25 8
0 5 9 9 19 9 11 0 22 -4 25 -9z m-4244 -108 c0 -5 -5 -15 -10 -23 -8 -12 -10
-11 -10 8 0 12 5 22 10 22 6 0 10 -3 10 -7z m4227 -65 c-3 -7 -5 -2 -5 12 0
14 2 19 5 13 2 -7 2 -19 0 -25z m-4250 -10 c-3 -7 -5 -2 -5 12 0 14 2 19 5 13
2 -7 2 -19 0 -25z m-289 -160 c-6 -18 -28 -21 -28 -4 0 9 7 16 16 16 9 0 14
-5 12 -12z m377 -67 c-3 -6 -14 -11 -23 -11 -15 1 -15 2 2 15 21 16 32 13 21
-4z m4182 -28 c-3 -10 -5 -2 -5 17 0 19 2 27 5 18 2 -10 2 -26 0 -35z m-4268
11 c8 -8 -14 -22 -45 -28 -24 -5 -33 -3 -38 9 -10 28 4 37 43 30 20 -4 38 -9
40 -11z m-69 -54 c-19 -13 -30 -13 -30 0 0 6 10 10 23 10 18 0 19 -2 7 -10z
m-50 -30 c0 -5 -4 -10 -10 -10 -5 0 -10 5 -10 10 0 6 5 10 10 10 6 0 10 -4 10
-10z m4300 -1260 c0 -5 -4 -10 -10 -10 -5 0 -10 5 -10 10 0 6 5 10 10 10 6 0
10 -4 10 -10z m-3908 -92 c-7 -7 -12 -8 -12 -2 0 14 12 26 19 19 2 -3 -1 -11
-7 -17z m-210 -724 c13 -12 -6 -44 -26 -45 -16 -1 -13 -4 12 -11 52 -17 37
-48 -24 -48 -22 0 -24 3 -24 55 0 54 1 55 28 55 16 0 31 -3 34 -6z m-70 -132
c-16 -5 -16 -72 1 -72 6 0 4 -5 -5 -11 -12 -7 -24 -6 -37 1 -11 5 -31 10 -45
10 -31 0 -35 24 -6 42 11 7 20 18 20 25 0 9 14 12 42 11 24 -1 37 -3 30 -6z"/>
<path d="M4295 4352 c-6 -28 10 -200 20 -210 3 -3 5 47 5 111 0 111 -12 158
-25 99z"/>
<path d="M4650 5111 c0 -5 5 -13 10 -16 6 -3 10 -2 10 4 0 5 -4 13 -10 16 -5
3 -10 2 -10 -4z"/>
<path d="M7420 4540 c0 -5 14 -10 30 -10 17 0 30 5 30 10 0 6 -13 10 -30 10
-16 0 -30 -4 -30 -10z"/>
<path d="M2945 4430 c-3 -5 -16 -11 -28 -11 -13 -1 -8 -4 13 -8 33 -6 54 4 44
21 -7 11 -22 10 -29 -2z"/>
<path d="M2950 4380 c0 -5 5 -10 10 -10 6 0 10 5 10 10 0 6 -4 10 -10 10 -5 0
-10 -4 -10 -10z"/>
<path d="M7472 4225 c0 -16 2 -22 5 -12 2 9 2 23 0 30 -3 6 -5 -1 -5 -18z"/>
<path d="M7150 4176 c0 -9 30 -14 35 -6 4 6 -3 10 -14 10 -12 0 -21 -2 -21 -4z"/>
<path d="M1785 4160 c-3 -6 1 -7 9 -4 18 7 21 14 7 14 -6 0 -13 -4 -16 -10z"/>
<path d="M2620 4030 c0 -5 5 -10 11 -10 5 0 7 5 4 10 -3 6 -8 10 -11 10 -2 0
-4 -4 -4 -10z"/>
<path d="M3387 3724 c-10 -10 -9 -104 2 -104 20 0 27 26 16 68 -6 24 -14 40
-18 36z"/>
<path d="M1928 3623 c12 -2 22 -11 22 -19 0 -8 5 -14 10 -14 6 0 10 6 10 14 0
15 -22 27 -48 25 -10 -1 -8 -4 6 -6z"/>
<path d="M3350 3600 c-9 -16 -8 -20 5 -20 8 0 15 9 15 20 0 11 -2 20 -5 20 -2
0 -9 -9 -15 -20z"/>
<path d="M1950 3550 c0 -5 5 -10 10 -10 6 0 10 5 10 10 0 6 -4 10 -10 10 -5 0
-10 -4 -10 -10z"/>
<path d="M2415 3549 c-4 -6 -5 -13 -2 -16 8 -7 47 7 47 18 0 13 -37 11 -45 -2z"/>
<path d="M1955 3470 c-19 -8 -19 -9 3 -9 12 -1 22 4 22 9 0 6 -1 10 -2 9 -2 0
-12 -4 -23 -9z"/>
<path d="M1910 3430 c0 -5 5 -10 10 -10 6 0 10 5 10 10 0 6 -4 10 -10 10 -5 0
-10 -4 -10 -10z"/>
<path d="M4420 3426 c0 -9 5 -16 10 -16 6 0 10 4 10 9 0 6 -4 13 -10 16 -5 3
-10 -1 -10 -9z"/>
<path d="M2070 3360 c-8 -11 -20 -20 -27 -20 -15 0 -51 -19 -71 -37 -11 -11
-10 -13 6 -13 11 0 25 7 32 15 7 8 20 15 30 15 16 0 38 19 54 48 12 20 -8 14
-24 -8z"/>
<path d="M1936 3351 c-3 -5 5 -11 19 -13 17 -4 25 -1 25 8 0 15 -36 19 -44 5z"/>
<path d="M2650 3281 c0 -6 16 -11 39 -11 22 0 43 -5 46 -10 3 -6 16 -8 28 -5
12 3 60 1 107 -5 113 -15 121 -16 223 -42 l87 -22 0 -41 c0 -34 -50 -194 -96
-309 -6 -16 -4 -17 17 -11 13 4 33 17 44 30 46 52 140 60 342 31 100 -14 143
-28 143 -46 0 -22 27 3 39 36 23 65 60 91 143 103 40 5 93 8 118 5 39 -3 41
-3 16 6 -67 22 -199 8 -235 -24 -22 -20 -35 -21 -27 0 5 12 1 14 -15 9 -14 -5
-19 -3 -15 4 7 11 -17 19 -73 23 -30 3 -36 8 -43 36 -7 25 -13 32 -25 28 -8
-4 -52 3 -97 15 -59 15 -88 29 -106 49 -25 27 -127 80 -155 80 -7 0 -16 4 -19
8 -3 5 -21 9 -41 10 -20 1 -40 4 -45 7 -15 9 -100 25 -185 35 -182 21 -215 23
-215 11z"/>
<path d="M1834 3259 c-3 -6 -2 -14 2 -19 12 -11 57 7 49 20 -8 13 -42 13 -51
-1z"/>
<path d="M1756 3243 c-25 -14 -27 -17 -12 -25 14 -8 15 -13 5 -24 -6 -8 -9
-17 -6 -20 7 -7 77 61 77 76 0 14 -29 11 -64 -7z"/>
<path d="M1660 3195 c0 -9 6 -12 15 -9 8 4 15 7 15 9 0 2 -7 5 -15 9 -9 3 -15
0 -15 -9z"/>
<path d="M1602 3145 c-15 -8 -19 -14 -11 -17 7 -2 9 -9 5 -17 -7 -11 -10 -11
-17 0 -6 11 -13 9 -31 -8 -13 -11 -34 -24 -48 -28 -40 -13 -100 -54 -100 -70
0 -9 -16 -16 -44 -20 -36 -6 -46 -12 -48 -29 -2 -13 -10 -21 -23 -21 -14 0
-19 6 -17 20 2 18 1 18 -8 3 -13 -22 -4 -45 22 -51 20 -6 58 11 58 25 0 5 7 8
15 8 8 0 23 8 33 18 22 21 67 42 92 42 11 0 20 4 20 8 0 4 19 13 43 20 33 9
48 21 69 55 49 78 46 93 -10 62z"/>
<path d="M1660 3149 c0 -5 5 -7 10 -4 6 3 10 8 10 11 0 2 -4 4 -10 4 -5 0 -10
-5 -10 -11z"/>
<path d="M2595 3141 c-6 -11 9 -23 19 -14 9 9 7 23 -3 23 -6 0 -12 -4 -16 -9z"/>
<path d="M4165 2920 c-4 -6 2 -10 13 -10 22 0 142 -46 156 -60 17 -17 26 -11
26 15 0 17 -4 23 -15 19 -8 -3 -45 4 -82 16 -37 12 -73 23 -80 25 -7 2 -15 0
-18 -5z"/>
<path d="M1245 2889 c-12 -18 3 -22 20 -5 14 14 14 16 1 16 -8 0 -18 -5 -21
-11z"/>
<path d="M758 2813 c7 -3 16 -2 19 1 4 3 -2 6 -13 5 -11 0 -14 -3 -6 -6z"/>
<path d="M3185 2469 c-4 -11 -4 -23 -1 -26 8 -9 36 17 36 33 0 22 -28 16 -35
-7z"/>
<path d="M3817 2380 c-8 -69 -35 -191 -46 -204 -5 -6 -19 -47 -31 -91 -12 -44
-29 -84 -37 -90 -11 -8 -14 -24 -11 -56 3 -24 2 -53 -2 -64 -4 -11 -4 -29 0
-40 7 -16 10 -11 15 23 5 24 14 46 21 49 8 3 14 11 14 19 0 8 4 22 9 32 5 9
14 28 19 42 9 21 11 22 11 5 1 -18 -18 -142 -35 -238 l-7 -39 64 7 c103 10
101 8 98 75 -1 32 2 65 8 72 6 7 14 23 17 36 4 13 15 22 27 22 10 0 19 5 19
10 0 6 -9 10 -20 10 -36 0 -22 27 18 33 39 7 68 38 63 70 -4 32 88 16 152 -26
15 -9 27 -14 27 -10 1 5 7 -7 15 -25 8 -18 12 -39 9 -46 -3 -8 -1 -24 6 -35
12 -24 -7 -162 -20 -141 -5 8 -9 7 -14 -5 -4 -11 -12 -14 -26 -10 -16 5 -20 2
-20 -19 0 -39 1 -40 44 -55 23 -7 50 -20 60 -30 19 -16 19 -14 10 69 -4 47 -7
123 -5 170 6 201 5 246 -7 268 -12 20 -15 21 -28 7 -17 -16 -124 -20 -124 -4
0 5 5 9 11 9 6 0 9 16 7 38 -3 32 -6 37 -25 35 -15 -2 -23 3 -23 12 0 22 -28
18 -35 -5 -12 -37 -65 -50 -65 -16 0 7 -12 19 -27 27 -36 18 -103 85 -103 102
0 7 -6 22 -14 32 -13 17 -14 15 -19 -25z"/>
<path d="M3140 2388 c-8 -13 -34 -61 -58 -108 -25 -47 -54 -103 -65 -125 -57
-109 -76 -191 -69 -307 10 -162 7 -199 -21 -260 -16 -34 -22 -60 -17 -63 6 -4
13 2 17 12 9 26 69 83 88 83 21 0 19 21 -11 92 -22 53 -26 75 -25 166 1 132
23 220 72 292 38 56 126 240 115 240 -6 0 -18 -10 -26 -22z"/>
<path d="M4720 2360 c-8 -5 -11 -12 -8 -16 11 -10 60 5 53 16 -8 12 -26 12
-45 0z"/>
<path d="M4523 2333 c9 -2 23 -2 30 0 6 3 -1 5 -18 5 -16 0 -22 -2 -12 -5z"/>
<path d="M4710 2226 c-13 -35 -13 -36 4 -36 19 0 31 39 17 53 -7 7 -13 2 -21
-17z"/>
<path d="M3616 1831 c-3 -5 -3 -17 0 -26 4 -9 0 -33 -9 -53 -24 -60 -38 -135
-31 -169 6 -31 9 -33 46 -33 34 0 41 -4 60 -35 11 -20 22 -34 24 -32 4 4 34
204 34 227 -1 10 -4 9 -12 -5 -6 -11 -17 -31 -25 -43 l-15 -24 -20 22 c-16 17
-22 40 -26 97 -4 69 -13 95 -26 74z"/>
<path d="M2320 1705 c0 -13 31 -65 39 -65 4 0 20 -31 36 -69 24 -61 27 -80 23
-143 -3 -40 -12 -89 -21 -108 -8 -19 -17 -44 -19 -55 -2 -11 -14 -25 -26 -31
-17 -8 -20 -13 -10 -17 10 -5 9 -8 -4 -17 -11 -6 -18 -23 -18 -40 0 -20 -5
-30 -15 -30 -9 0 -15 -9 -15 -21 0 -12 -12 -43 -27 -70 -14 -27 -24 -51 -22
-53 2 -3 16 -7 31 -11 24 -6 29 -3 38 19 5 14 14 26 20 26 5 0 10 9 10 19 0
18 6 19 68 15 94 -6 124 -14 148 -36 19 -17 22 -17 27 -4 4 9 4 22 2 29 -7 18
15 46 22 29 4 -10 9 -8 20 7 11 17 17 19 32 9 10 -6 26 -8 34 -5 13 5 16 18
12 74 -3 39 -1 58 3 44 12 -39 30 -36 42 8 6 22 14 41 18 43 4 2 21 30 37 63
17 33 46 88 65 122 39 68 34 95 -8 47 -49 -57 -100 -84 -154 -84 -67 0 -90 13
-78 44 9 24 5 36 -12 36 -5 0 -8 -12 -6 -27 4 -35 -13 -39 -46 -8 -14 13 -36
30 -47 36 -16 8 -19 17 -14 36 5 22 -5 36 -80 109 -76 75 -105 96 -105 79z
m310 -556 c0 -5 -4 -9 -10 -9 -5 0 -10 7 -10 16 0 8 5 12 10 9 6 -3 10 -10 10
-16z"/>
<path d="M4317 1345 c-4 -44 -9 -136 -12 -205 -4 -103 -3 -115 5 -70 17 90 39
147 60 153 11 3 25 17 32 32 11 25 10 29 -14 50 -28 24 -47 55 -58 94 -5 19
-9 3 -13 -54z"/>
<path d="M4730 1396 c0 -9 5 -16 10 -16 6 0 10 4 10 9 0 6 -4 13 -10 16 -5 3
-10 -1 -10 -9z"/>
<path d="M4575 1379 c-4 -5 -7 -23 -7 -41 -1 -32 22 -58 50 -58 8 0 26 -12 39
-26 13 -14 26 -25 27 -23 2 2 6 37 9 77 l6 74 -27 -7 c-50 -13 -62 -14 -62 -5
0 12 -29 20 -35 9z"/>
<path d="M2250 1351 c0 -6 5 -13 10 -16 6 -3 10 1 10 9 0 9 -4 16 -10 16 -5 0
-10 -4 -10 -9z"/>
<path d="M4745 1257 c-3 -9 -7 -24 -10 -33 -4 -12 0 -14 18 -8 31 9 31 10 13
35 -13 19 -16 20 -21 6z"/>
<path d="M5052 1203 c2 -41 7 -66 13 -63 6 3 9 14 8 25 -2 11 -3 39 -3 63 -1
23 -5 42 -11 42 -6 0 -9 -27 -7 -67z"/>
<path d="M4625 1170 c3 -5 8 -10 11 -10 2 0 4 5 4 10 0 6 -5 10 -11 10 -5 0
-7 -4 -4 -10z"/>
<path d="M2611 1028 c0 -15 -8 -33 -16 -42 -8 -8 -15 -21 -15 -28 0 -8 -5 -19
-12 -26 -9 -9 -8 -12 3 -16 30 -10 120 -13 125 -4 3 5 1 22 -6 38 -8 20 -20
30 -38 32 -22 2 -28 9 -33 38 -5 29 -7 31 -8 8z"/>
<path d="M4094 980 c-20 -8 -74 -56 -74 -65 0 -2 7 -2 15 1 9 4 15 0 15 -10 0
-9 7 -16 15 -16 8 0 24 -4 35 -10 11 -5 29 -15 41 -21 27 -13 40 -1 16 16 -14
10 -15 18 -8 38 10 24 6 37 -11 37 -4 0 -8 -9 -8 -20 0 -11 -5 -20 -10 -20 -6
0 -8 15 -4 40 4 22 5 40 3 39 -2 0 -14 -4 -25 -9z"/>
<path d="M4294 895 c6 -42 3 -60 -18 -105 -28 -60 -27 -75 4 -39 29 36 39 80
29 135 -12 64 -23 71 -15 9z"/>
<path d="M4187 924 c-10 -10 -9 -42 2 -48 5 -3 14 0 20 7 12 15 -9 54 -22 41z"/>
<path d="M1491 787 c-6 -8 -8 -17 -4 -20 7 -8 33 11 33 24 0 13 -16 11 -29 -4z"/>
<path d="M2366 681 c-4 -7 -5 -15 -2 -18 9 -9 19 4 14 18 -4 11 -6 11 -12 0z"/>
<path d="M4105 670 c-3 -5 -1 -10 4 -10 6 0 11 5 11 10 0 6 -2 10 -4 10 -3 0
-8 -4 -11 -10z"/>
<path d="M1673 634 c-8 -20 8 -36 26 -25 15 10 8 41 -9 41 -6 0 -13 -7 -17
-16z"/>
<path d="M2120 190 c-13 -8 -12 -10 3 -10 9 0 17 5 17 10 0 12 -1 12 -20 0z"/>
</g>
</svg>
